<?xml version="1.0" encoding="utf-8"?><svg xmlns="http://www.w3.org/2000/svg" xmlns:xlink="http://www.w3.org/1999/xlink"><symbol viewBox="0 0 12.59 22" id="arrow-right" xmlns="http://www.w3.org/2000/svg"><path d="M1 22a1 1 0 01-.71-.29 1 1 0 010-1.42l9.84-9.83L.34 1.75A1 1 0 011.66.25l10.59 9.41a.92.92 0 01.19.25 1 1 0 01.12.46 1.15 1.15 0 01-.08.41 1.08 1.08 0 01-.2.29L1.71 21.71A1 1 0 011 22z"/></symbol><symbol viewBox="0 0 31 30" id="audio" xmlns="http://www.w3.org/2000/svg"><path d="M17.82 27.69l-9-6.59V8.9l9-6.59zm-10.51-7h-4.2a1.56 1.56 0 01-1.56-1.56v-8.29a1.56 1.56 0 011.56-1.56h4.2zm12.07 8.5V.78A.78.78 0 0018.6 0a.79.79 0 00-.46.15L7.83 7.73H3.11A3.11 3.11 0 000 10.84v8.32a3.11 3.11 0 003.11 3.11h4.72l10.31 7.58a.77.77 0 001.09-.17.75.75 0 00.15-.46zM22.63 18a.77.77 0 00-.39 1 .77.77 0 001 .39 4.86 4.86 0 000-8.89.78.78 0 00-.61 1.5 3.3 3.3 0 011.7 4.35 3.26 3.26 0 01-1.7 1.65z"/><path d="M23.47 6.28a.78.78 0 00-.3 1.53 7.34 7.34 0 010 14.39.76.76 0 00-.52 1 .77.77 0 00.82.56 8.9 8.9 0 000-17.44z"/></symbol><symbol id="brands" viewBox="0 0 38.93 38.85" xmlns="http://www.w3.org/2000/svg"><defs><style>.acb2cee7b6-b1e4-49cd-98d4-42201c7f6da2{fill:#ae9142}</style></defs><path class="acb2cee7b6-b1e4-49cd-98d4-42201c7f6da2" d="M32.5 30.05a.57.57 0 00-.17.53l1.41 6.54-6-3.24a.45.45 0 00-.3-.06.52.52 0 00-.29.06l-6 3.24 1.53-6.48a.47.47 0 00-.18-.53l-4.59-4.48 6.3-.95a.65.65 0 00.47-.35l2.83-6 2.83 6a.59.59 0 00.47.35l6.31.95zM12.64 12.43a1.89 1.89 0 01-1.76 0 7.55 7.55 0 002.29-3.07 1.93 1.93 0 01-.53 3.07zM10.88 9a2.44 2.44 0 011.29-.18 6.19 6.19 0 01-2.12 2.83A1.93 1.93 0 0110.83 9zm4.47 25.63a1.17 1.17 0 01-1 .06 1.34 1.34 0 01-.76-.64L4.1 15.26l.71-1.89a6.83 6.83 0 005-.29 3 3 0 003.41.35 3.11 3.11 0 00-2.8-5.55A3.1 3.1 0 009 12.07v.06a6.05 6.05 0 01-3.83.18l3-8.07A.38.38 0 018.58 4L20 7.18l6 11.67-2.24 4.72-7.19 1.06a.57.57 0 00-.47.41.53.53 0 00.18.59l5.18 5.07-.17.88zM1.86 9.42a5.75 5.75 0 012.47-7.66 5.49 5.49 0 014.31-.35 5.47 5.47 0 012.88 2.12L9 2.82a1.49 1.49 0 00-1.83 1L4.1 11.84a5.27 5.27 0 01-2.24-2.42zM38.87 25a.56.56 0 00-.48-.41l-7.13-1.06-3.26-6.8a.55.55 0 00-.53-.35.56.56 0 00-.53.35l-.35.77-5.52-10.85a1.13 1.13 0 00-.77-.59L13.11 4a.41.41 0 01-.11-.23A6.8 6.8 0 009 .35a6.75 6.75 0 00-5.25.41A6.9 6.9 0 00.74 10a6.48 6.48 0 003 3L3 14.84a1.2 1.2 0 00.06 1l9.49 18.68A2.32 2.32 0 0014 35.76a2.49 2.49 0 001.94-.17l5-2.54-1.12 5.07a.57.57 0 00.24.59.63.63 0 00.65.06l6.83-3.71 6.84 3.71a.54.54 0 00.65-.06.56.56 0 00.23-.59l-1.65-7.48 5.19-5.07a.45.45 0 00.07-.57z"/><path class="acb2cee7b6-b1e4-49cd-98d4-42201c7f6da2" d="M23.37 18.32a.56.56 0 00-.77-.24l-11 5.6a.55.55 0 00-.23.77.54.54 0 00.76.23l11-5.59a.52.52 0 00.24-.77zm-2.06-3.89a.55.55 0 00-.77-.23l-11 5.59a.57.57 0 00.53 1l11-5.6a.55.55 0 00.24-.77zm-5.48 11.79a.59.59 0 00-.77-.3l-2 1a.55.55 0 00-.23.77.56.56 0 00.77.24l1.94-1a.47.47 0 00.29-.71zm2.82 2.59a.53.53 0 00-.76-.24l-3.13 1.54a.54.54 0 00-.23.76.53.53 0 00.77.24l3.06-1.59a.54.54 0 00.29-.71z"/></symbol><symbol viewBox="0 0 32 32" id="check" xmlns="http://www.w3.org/2000/svg"><path d="M26.664 6.27a.829.829 0 00-1.177 0L13.088 18.611a.826.826 0 01-1.178 0l-5.433-5.532a.825.825 0 00-1.177 0l-2.401 2.158a.83.83 0 00-.246.583c0 .215.087.44.247.603l5.478 5.749c.324.328.855.861 1.178 1.186l2.355 2.374a.834.834 0 001.178 0L29.019 9.83a.846.846 0 000-1.188l-2.356-2.373z"/></symbol><symbol viewBox="0 0 35.6 35.6" id="close" xmlns="http://www.w3.org/2000/svg"><path d="M26.26 10.44a.76.76 0 000-1.08.76.76 0 00-1.08 0l-7.38 7.33-7.36-7.35a.76.76 0 00-1.08 0 .77.77 0 000 1.08l7.36 7.36-7.39 7.38a.77.77 0 000 1.08.79.79 0 00.56.23.8.8 0 00.55-.23l7.36-7.36 7.36 7.36a.79.79 0 00.55.23.82.82 0 00.56-.23.78.78 0 000-1.09l-7.36-7.35zM17.8 34A16.22 16.22 0 1134 17.8 16.24 16.24 0 0117.8 34zm0-34a17.8 17.8 0 1017.8 17.8A17.83 17.83 0 0017.8 0z"/></symbol><symbol id="duty-free" viewBox="0 0 29.78 38.85" xmlns="http://www.w3.org/2000/svg"><defs><style>.afed925a45-cfe0-466a-918b-deca8d400ab6{fill:#ae9142}</style></defs><path class="afed925a45-cfe0-466a-918b-deca8d400ab6" d="M12.6 24.3a.64.64 0 00.92 0l3.66-3.66a.65.65 0 000-.91.63.63 0 00-.91 0l-3.67 3.66a.65.65 0 000 .91zm-.51-4.12a1 1 0 111 1 1 1 0 01-1-1zm3.66 3.67a1 1 0 111 1 1 1 0 01-1-1z"/><path class="afed925a45-cfe0-466a-918b-deca8d400ab6" d="M28.49 37.15l-1.66-.82a.64.64 0 00-.57 0l-1.66.82V10.36h3.89zM23.31 9.07h-3.89V7.12a7.06 7.06 0 00-2.92-5.73 5.8 5.8 0 016.72 4.69 6 6 0 01.09 1zm-5.21 9.74a4.53 4.53 0 11-6.41 6.41 4.53 4.53 0 016.41-6.41zm5.21 18.74H3.24a1.94 1.94 0 01-1.94-1.94V10.36h3.88V13h-.65a.65.65 0 000 1.3h2.59a.65.65 0 000-1.3h-.65v-2.64h7.77v5.87a5.85 5.85 0 101.3 0v-5.87h2.59V13h-.65a.65.65 0 100 1.3h2.59a.65.65 0 000-1.3h-.65v-2.64h3.89zM6.47 7.12a5.8 5.8 0 015.77-5.82 4.52 4.52 0 011 .09 7.09 7.09 0 00-2.92 5.73v2H6.47zm8.42-5.21a5.82 5.82 0 013.24 5.21v2h-6.48v-2a5.84 5.84 0 013.24-5.21zm9.71 7.16V7.12A7.09 7.09 0 0014.89.5a7.11 7.11 0 00-9.22 4 7.38 7.38 0 00-.49 2.62v2H.65a.64.64 0 00-.65.59v25.9a3.24 3.24 0 003.24 3.24H24a.48.48 0 00.2 0h.06l2.3-1.15 2.3 1.15a.65.65 0 00.87-.29.59.59 0 00.07-.29V9.71a.64.64 0 00-.64-.64H24.6z"/></symbol><symbol viewBox="0 0 45.437 45.437" id="empty" xmlns="http://www.w3.org/2000/svg"/><symbol viewBox="0 0 10.61 19.81" id="facebook" xmlns="http://www.w3.org/2000/svg"><path d="M9.92 11.15l.55-3.59H7V5.23a1.79 1.79 0 012-1.94h1.56v-3A19.23 19.23 0 007.84 0C5 0 3.15 1.72 3.15 4.83v2.73H0v3.59h3.15v8.66H7v-8.67z"/></symbol><symbol viewBox="0 0 19.81 19.81" id="instagram" xmlns="http://www.w3.org/2000/svg"><path d="M18.16 16.51a1.65 1.65 0 01-1.65 1.65H3.3a1.65 1.65 0 01-1.65-1.65V3.3A1.65 1.65 0 013.3 1.65h13.21a1.65 1.65 0 011.65 1.65zM16.51 0H3.3A3.3 3.3 0 000 3.3v13.21a3.3 3.3 0 003.3 3.3h13.21a3.3 3.3 0 003.3-3.3V3.3a3.3 3.3 0 00-3.3-3.3z"/><path d="M9.9 13.21a3.31 3.31 0 113.31-3.31 3.31 3.31 0 01-3.31 3.31zM9.9 5a5 5 0 105 5 5 5 0 00-5-5zm4.1-.46a1.24 1.24 0 012.48 0 1.24 1.24 0 11-2.48 0z"/></symbol><symbol viewBox="0 0 12.59 22" id="left" xmlns="http://www.w3.org/2000/svg"><path d="M1 10.59a1 1 0 01.66.25l10.59 9.41a1 1 0 01.09 1.41 1 1 0 01-1.42.09L.34 12.34a1 1 0 01-.09-1.42 1 1 0 01.75-.33z"/><path d="M11.59 0a1 1 0 01.71.29 1 1 0 010 1.42L1.71 12.29a1 1 0 11-1.42-1.41L10.88.29a1 1 0 01.71-.29z"/></symbol><symbol viewBox="0 0 19.82 19.88" id="linkedin" xmlns="http://www.w3.org/2000/svg"><path d="M19.81 19.88h-4.1v-6.44c0-1.53 0-3.5-2.13-3.5s-2.47 1.67-2.47 3.39v6.55H7V6.66h4v1.8a4.32 4.32 0 013.9-2.14c4.15 0 4.92 2.74 4.92 6.3v7.26zM2.38 4.85A2.4 2.4 0 010 2.45a2.38 2.38 0 014.76-.14v.14a2.4 2.4 0 01-2.38 2.4zm2.06 15H.33V6.66h4.11z"/></symbol><symbol id="luggage" viewBox="0 0 31.08 38.85" xmlns="http://www.w3.org/2000/svg"><defs><style>.alb9dde361-3bea-4d9a-8c6e-204c08dd0ae1{fill:#ae9142}</style></defs><path class="alb9dde361-3bea-4d9a-8c6e-204c08dd0ae1" d="M29.78 36.91a.66.66 0 01-.64.65h-9.07a.67.67 0 01-.65-.65V20.07a.66.66 0 01.65-.64 1.05 1.05 0 011 .8A2.36 2.36 0 0023.39 22h2.51a2.37 2.37 0 002.29-1.79 1 1 0 011-.8.65.65 0 01.61.64v16.86zM18.13 20.07v15.54h-1.38a2.59 2.59 0 00-5 0H9a2.59 2.59 0 00-5 0H2a.64.64 0 01-.7-.61V13a.64.64 0 01.64-.65h5.18v2.59h1.3V12.3h3.88v2.59h1.3V12.3h5.18a.66.66 0 01.65.65v5.29a2 2 0 00-1.3 1.83zm-3.89 17.49a1.31 1.31 0 01-1.24-1.3 1.3 1.3 0 111.29 1.3zm-7.77 0a1.31 1.31 0 01-1.29-1.3 1.3 1.3 0 111.29 1.3zm2-34.32a1.94 1.94 0 013.88 0V11H8.42zm18.64 16.19a2.6 2.6 0 00-.18.49 1.06 1.06 0 01-1 .8h-2.54a1.06 1.06 0 01-1-.8 2.05 2.05 0 00-.18-.49zm2.11-1.3h-8.5V13a1.94 1.94 0 00-1.94-2H13.6V3.24a3.24 3.24 0 00-6.48 0V11H1.94A1.94 1.94 0 000 13v22a2 2 0 001.94 1.94H4a2.59 2.59 0 005 0h2.76a2.59 2.59 0 005 0h1.38a1.94 1.94 0 001.94 1.94h9.07a1.94 1.94 0 001.94-1.94V20.07a2 2 0 00-1.87-1.94z"/><path class="alb9dde361-3bea-4d9a-8c6e-204c08dd0ae1" d="M23.31 16.84h1.29a2.58 2.58 0 00-2.6-2.59v1.29a1.3 1.3 0 011.31 1.3z"/><path class="alb9dde361-3bea-4d9a-8c6e-204c08dd0ae1" d="M25.9 16.84h1.29A5.18 5.18 0 0022 11.66V13a3.89 3.89 0 013.9 3.84z"/><path class="alb9dde361-3bea-4d9a-8c6e-204c08dd0ae1" d="M28.49 16.84h1.29A7.77 7.77 0 0022 9.07v1.29a6.48 6.48 0 016.48 6.47zM4.4 32.69V16.57h1.46v16.12zm4.4 0V16.57h1.46v16.12zm2.93 0V16.57h1.46v16.12zm4.4 0V16.57h1.46v16.12z"/></symbol><symbol viewBox="0 0 30 30" id="play" xmlns="http://www.w3.org/2000/svg"><path d="M9.89 8.52v13L21.48 15zM15 1.36A13.64 13.64 0 111.36 15 13.63 13.63 0 0115 1.36zM15 0a15 15 0 1015 15A15 15 0 0015 0z"/></symbol><symbol viewBox="0 0 18 18" id="plyr-airplay" xmlns="http://www.w3.org/2000/svg"><path d="M16 1H2a1 1 0 00-1 1v10a1 1 0 001 1h3v-2H3V3h12v8h-2v2h3a1 1 0 001-1V2a1 1 0 00-1-1z"/><path d="M4 17h10l-5-6z"/></symbol><symbol viewBox="0 0 18 18" id="plyr-captions-off" xmlns="http://www.w3.org/2000/svg"><path d="M1 1c-.6 0-1 .4-1 1v11c0 .6.4 1 1 1h4.6l2.7 2.7c.2.2.4.3.7.3.3 0 .5-.1.7-.3l2.7-2.7H17c.6 0 1-.4 1-1V2c0-.6-.4-1-1-1H1zm4.52 10.15c1.99 0 3.01-1.32 3.28-2.41l-1.29-.39c-.19.66-.78 1.45-1.99 1.45-1.14 0-2.2-.83-2.2-2.34 0-1.61 1.12-2.37 2.18-2.37 1.23 0 1.78.75 1.95 1.43l1.3-.41C8.47 4.96 7.46 3.76 5.5 3.76c-1.9 0-3.61 1.44-3.61 3.7 0 2.26 1.65 3.69 3.63 3.69zm7.57 0c1.99 0 3.01-1.32 3.28-2.41l-1.29-.39c-.19.66-.78 1.45-1.99 1.45-1.14 0-2.2-.83-2.2-2.34 0-1.61 1.12-2.37 2.18-2.37 1.23 0 1.78.75 1.95 1.43l1.3-.41c-.28-1.15-1.29-2.35-3.25-2.35-1.9 0-3.61 1.44-3.61 3.7 0 2.26 1.65 3.69 3.63 3.69z" fill-rule="evenodd" fill-opacity=".5"/></symbol><symbol viewBox="0 0 18 18" id="plyr-captions-on" xmlns="http://www.w3.org/2000/svg"><path d="M1 1c-.6 0-1 .4-1 1v11c0 .6.4 1 1 1h4.6l2.7 2.7c.2.2.4.3.7.3.3 0 .5-.1.7-.3l2.7-2.7H17c.6 0 1-.4 1-1V2c0-.6-.4-1-1-1H1zm4.52 10.15c1.99 0 3.01-1.32 3.28-2.41l-1.29-.39c-.19.66-.78 1.45-1.99 1.45-1.14 0-2.2-.83-2.2-2.34 0-1.61 1.12-2.37 2.18-2.37 1.23 0 1.78.75 1.95 1.43l1.3-.41C8.47 4.96 7.46 3.76 5.5 3.76c-1.9 0-3.61 1.44-3.61 3.7 0 2.26 1.65 3.69 3.63 3.69zm7.57 0c1.99 0 3.01-1.32 3.28-2.41l-1.29-.39c-.19.66-.78 1.45-1.99 1.45-1.14 0-2.2-.83-2.2-2.34 0-1.61 1.12-2.37 2.18-2.37 1.23 0 1.78.75 1.95 1.43l1.3-.41c-.28-1.15-1.29-2.35-3.25-2.35-1.9 0-3.61 1.44-3.61 3.7 0 2.26 1.65 3.69 3.63 3.69z" fill-rule="evenodd"/></symbol><symbol viewBox="0 0 18 18" id="plyr-download" xmlns="http://www.w3.org/2000/svg"><path d="M9 13c.3 0 .5-.1.7-.3L15.4 7 14 5.6l-4 4V1H8v8.6l-4-4L2.6 7l5.7 5.7c.2.2.4.3.7.3zm-7 2h14v2H2z"/></symbol><symbol viewBox="0 0 18 18" id="plyr-enter-fullscreen" xmlns="http://www.w3.org/2000/svg"><path d="M10 3h3.6l-4 4L11 8.4l4-4V8h2V1h-7zM7 9.6l-4 4V10H1v7h7v-2H4.4l4-4z"/></symbol><symbol viewBox="0 0 18 18" id="plyr-exit-fullscreen" xmlns="http://www.w3.org/2000/svg"><path d="M1 12h3.6l-4 4L2 17.4l4-4V17h2v-7H1zM16 .6l-4 4V1h-2v7h7V6h-3.6l4-4z"/></symbol><symbol viewBox="0 0 18 18" id="plyr-fast-forward" xmlns="http://www.w3.org/2000/svg"><path d="M7.875 7.171L0 1v16l7.875-6.171V17L18 9 7.875 1z"/></symbol><symbol viewBox="0 0 18 18" id="plyr-logo-vimeo" xmlns="http://www.w3.org/2000/svg"><path d="M17 5.3c-.1 1.6-1.2 3.7-3.3 6.4-2.2 2.8-4 4.2-5.5 4.2-.9 0-1.7-.9-2.4-2.6C5 10.9 4.4 6 3 6c-.1 0-.5.3-1.2.8l-.8-1c.8-.7 3.5-3.4 4.7-3.5 1.2-.1 2 .7 2.3 2.5.3 2 .8 6.1 1.8 6.1.9 0 2.5-3.4 2.6-4 .1-.9-.3-1.9-2.3-1.1.8-2.6 2.3-3.8 4.5-3.8 1.7.1 2.5 1.2 2.4 3.3z"/></symbol><symbol viewBox="0 0 18 18" id="plyr-logo-youtube" xmlns="http://www.w3.org/2000/svg"><path d="M16.8 5.8c-.2-1.3-.8-2.2-2.2-2.4C12.4 3 9 3 9 3s-3.4 0-5.6.4C2 3.6 1.3 4.5 1.2 5.8 1 7.1 1 9 1 9s0 1.9.2 3.2c.2 1.3.8 2.2 2.2 2.4C5.6 15 9 15 9 15s3.4 0 5.6-.4c1.4-.3 2-1.1 2.2-2.4.2-1.3.2-3.2.2-3.2s0-1.9-.2-3.2zM7 12V6l5 3-5 3z"/></symbol><symbol viewBox="0 0 18 18" id="plyr-muted" xmlns="http://www.w3.org/2000/svg"><path d="M12.4 12.5l2.1-2.1 2.1 2.1 1.4-1.4L15.9 9 18 6.9l-1.4-1.4-2.1 2.1-2.1-2.1L11 6.9 13.1 9 11 11.1zM3.786 6.008H.714C.286 6.008 0 6.31 0 6.76v4.512c0 .452.286.752.714.752h3.072l4.071 3.858c.5.3 1.143 0 1.143-.602V2.752c0-.601-.643-.977-1.143-.601L3.786 6.008z"/></symbol><symbol viewBox="0 0 18 18" id="plyr-pause" xmlns="http://www.w3.org/2000/svg"><path d="M6 1H3c-.6 0-1 .4-1 1v14c0 .6.4 1 1 1h3c.6 0 1-.4 1-1V2c0-.6-.4-1-1-1zm6 0c-.6 0-1 .4-1 1v14c0 .6.4 1 1 1h3c.6 0 1-.4 1-1V2c0-.6-.4-1-1-1h-3z"/></symbol><symbol viewBox="0 0 18 18" id="plyr-pip" xmlns="http://www.w3.org/2000/svg"><path d="M13.293 3.293L7.022 9.564l1.414 1.414 6.271-6.271L17 7V1h-6z"/><path d="M13 15H3V5h5V3H2a1 1 0 00-1 1v12a1 1 0 001 1h12a1 1 0 001-1v-6h-2v5z"/></symbol><symbol viewBox="0 0 30 30" id="plyr-play" xmlns="http://www.w3.org/2000/svg"><path d="M9.89 8.52v13L21.48 15zM15 1.36A13.64 13.64 0 111.36 15 13.63 13.63 0 0115 1.36zM15 0a15 15 0 1015 15A15 15 0 0015 0z"/></symbol><symbol viewBox="0 0 18 18" id="plyr-restart" xmlns="http://www.w3.org/2000/svg"><path d="M9.7 1.2l.7 6.4 2.1-2.1c1.9 1.9 1.9 5.1 0 7-.9 1-2.2 1.5-3.5 1.5-1.3 0-2.6-.5-3.5-1.5-1.9-1.9-1.9-5.1 0-7 .6-.6 1.4-1.1 2.3-1.3l-.6-1.9C6 2.6 4.9 3.2 4 4.1 1.3 6.8 1.3 11.2 4 14c1.3 1.3 3.1 2 4.9 2 1.9 0 3.6-.7 4.9-2 2.7-2.7 2.7-7.1 0-9.9L16 1.9l-6.3-.7z"/></symbol><symbol viewBox="0 0 18 18" id="plyr-rewind" xmlns="http://www.w3.org/2000/svg"><path d="M10.125 1L0 9l10.125 8v-6.171L18 17V1l-7.875 6.171z"/></symbol><symbol viewBox="0 0 18 18" id="plyr-settings" xmlns="http://www.w3.org/2000/svg"><path d="M16.135 7.784a2 2 0 01-1.23-2.969c.322-.536.225-.998-.094-1.316l-.31-.31c-.318-.318-.78-.415-1.316-.094a2 2 0 01-2.969-1.23C10.065 1.258 9.669 1 9.219 1h-.438c-.45 0-.845.258-.997.865a2 2 0 01-2.969 1.23c-.536-.322-.999-.225-1.317.093l-.31.31c-.318.318-.415.781-.093 1.317a2 2 0 01-1.23 2.969C1.26 7.935 1 8.33 1 8.781v.438c0 .45.258.845.865.997a2 2 0 011.23 2.969c-.322.536-.225.998.094 1.316l.31.31c.319.319.782.415 1.316.094a2 2 0 012.969 1.23c.151.607.547.865.997.865h.438c.45 0 .845-.258.997-.865a2 2 0 012.969-1.23c.535.321.997.225 1.316-.094l.31-.31c.318-.318.415-.781.094-1.316a2 2 0 011.23-2.969c.607-.151.865-.547.865-.997v-.438c0-.451-.26-.846-.865-.997zM9 12a3 3 0 110-6 3 3 0 010 6z"/></symbol><symbol viewBox="0 0 18 18" id="plyr-volume" xmlns="http://www.w3.org/2000/svg"><path d="M15.6 3.3c-.4-.4-1-.4-1.4 0-.4.4-.4 1 0 1.4C15.4 5.9 16 7.4 16 9c0 1.6-.6 3.1-1.8 4.3-.4.4-.4 1 0 1.4.2.2.5.3.7.3.3 0 .5-.1.7-.3C17.1 13.2 18 11.2 18 9s-.9-4.2-2.4-5.7z"/><path d="M11.282 5.282a.909.909 0 000 1.316c.735.735.995 1.458.995 2.402 0 .936-.425 1.917-.995 2.487a.909.909 0 000 1.316c.145.145.636.262 1.018.156a.725.725 0 00.298-.156C13.773 11.733 14.13 10.16 14.13 9c0-.17-.002-.34-.011-.51-.053-.992-.319-2.005-1.522-3.208a.909.909 0 00-1.316 0zm-7.496.726H.714C.286 6.008 0 6.31 0 6.76v4.512c0 .452.286.752.714.752h3.072l4.071 3.858c.5.3 1.143 0 1.143-.602V2.752c0-.601-.643-.977-1.143-.601L3.786 6.008z"/></symbol><symbol viewBox="0 0 12.59 22" id="right" xmlns="http://www.w3.org/2000/svg"><path d="M11.59 11.41a1 1 0 01-.67-.25L.34 1.75A1 1 0 011.66.25l10.59 9.41a1 1 0 01.08 1.42 1 1 0 01-.74.33z"/><path d="M1 22a1 1 0 01-.71-.29 1 1 0 010-1.42L10.88 9.71a1 1 0 111.41 1.41L1.71 21.71A1 1 0 011 22z"/></symbol><symbol viewBox="0 0 24.4 19.81" id="twitter" xmlns="http://www.w3.org/2000/svg"><path d="M21.89 4.94v.65A14.12 14.12 0 017.68 19.81 14.13 14.13 0 010 17.57a9.61 9.61 0 001.21.06 10 10 0 006.2-2.13A5 5 0 012.74 12a7.3 7.3 0 00.94.08A5.75 5.75 0 005 11.94 5 5 0 011 7a5.06 5.06 0 002.26.63A5 5 0 011.7.91 14.19 14.19 0 0012 6.14 5.45 5.45 0 0111.89 5a5 5 0 018.65-3.42A9.83 9.83 0 0023.72.37a5 5 0 01-2.2 2.76 10.34 10.34 0 002.88-.78 11 11 0 01-2.51 2.59z"/></symbol><symbol viewBox="0 0 30 33.87" id="wifi" xmlns="http://www.w3.org/2000/svg"><path d="M14.06 31.9c3.69 0 7.09-1.06 8.94-4.24a10.06 10.06 0 001.37-5.16v-.94H1.87v.94c.81 5.58 3.69 9.39 9.38 9.4zm11.26-4.71h1.19a1.62 1.62 0 001.62-1.61v-2.14h-1.91c0 .17 0 .33-.06.5v.26c-.07.46-.16.91-.27 1.36l-.08.26a10.4 10.4 0 01-.45 1.33zm-18 6.56C5.72 33.51 0 27.42 0 22.5v-1.87a.94.94 0 01.94-.94h24.37a.94.94 0 01.94.94v.93h2.81a.94.94 0 01.94.94v3.08a3.48 3.48 0 01-3.49 3.48h-2.18c-1.34 2.1-4.48 4.62-5.59 4.69s-9.84.25-11.43 0zm7.28-19a1.78 1.78 0 01.4 1.19 1.88 1.88 0 01-3.75 0 1.9 1.9 0 011.88-1.88 1.88 1.88 0 011.46.71zM16.76 13a.91.91 0 01-.72-.34 3.74 3.74 0 00-5.27-.55 3.58 3.58 0 00-.55.55 1 1 0 01-1.33.12.93.93 0 01-.13-1.3 5.62 5.62 0 017.91-.83 5.85 5.85 0 01.82.83.92.92 0 01-.14 1.31 1 1 0 01-.59.22zm2.18-3.64A7.48 7.48 0 008.42 8.23a7.28 7.28 0 00-1.11 1.11.94.94 0 01-1.46-1.18A9.36 9.36 0 0119 6.77a9.61 9.61 0 011.4 1.39.94.94 0 01-1.46 1.18zM3.07 6.16a.92.92 0 01-.13-1.31 13.1 13.1 0 0120.37 0 .92.92 0 01-.13 1.31.94.94 0 01-1.32-.16A11.27 11.27 0 006 4.4 11.42 11.42 0 004.39 6a.94.94 0 01-1.32.16z"/></symbol><symbol viewBox="0 0 28.61 19.81" id="youtube" xmlns="http://www.w3.org/2000/svg"><path d="M19.91 10.1l-8.58 4.4a.23.23 0 01-.3-.09.2.2 0 010-.1V5.5a.22.22 0 01.22-.22.38.38 0 01.1 0l8.58 4.4a.23.23 0 01.1.3.22.22 0 01-.1.09zM23.77 0H4.84A4.84 4.84 0 000 4.84V15a4.84 4.84 0 004.84 4.84h18.93A4.84 4.84 0 0028.61 15V4.84A4.84 4.84 0 0023.77 0z"/></symbol></svg>