<svg id="e72ef96b-3544-44c8-835a-effc2914dfea" data-name="Layer 1" xmlns="http://www.w3.org/2000/svg" viewBox="0 0 91.21 91.21">
  <defs>
    <style>
      .b77fefaa-01bc-40b3-a4b9-31b3d0951263 {
        fill: none;
        stroke: #ae9142;
        stroke-miterlimit: 20;
      }

      .b956a509-ea93-453e-b1c8-a27e86e186eb {
        fill: #ae9142;
      }
    </style>
  </defs>
  <g>
    <path class="b77fefaa-01bc-40b3-a4b9-31b3d0951263" d="M.5,45.6A45.11,45.11,0,1,1,45.6,90.71,45.1,45.1,0,0,1,.5,45.6Z"/>
    <path class="b956a509-ea93-453e-b1c8-a27e86e186eb" d="M23.57,58.79V53.6H66.82v5.19Zm2.67-31.41c3.46-3.72,10-5.74,19-5.74s15.47,2,18.92,5.74a9.23,9.23,0,0,1,2.67,6.36v10c-1.15-.3-2.24-.55-3.39-.85V36.67a2.6,2.6,0,0,0-2.61-2.62H49.35a2.6,2.6,0,0,0-2.61,2.62v4.1c-1,0-2.06-.06-3.09,0v-4A2.6,2.6,0,0,0,41,34.11H29.57A2.59,2.59,0,0,0,27,36.73v6.05c-1.58.37-2.73.74-3.4.92v-10a9.21,9.21,0,0,1,2.67-6.36Zm36,15.22A84.24,84.24,0,0,0,48,40.83v-4.1a1.37,1.37,0,0,1,1.39-1.4H60.88a1.37,1.37,0,0,1,1.39,1.4ZM42.43,40.77a73.14,73.14,0,0,0-14.25,1.65V36.67a1.37,1.37,0,0,1,1.39-1.4H41a1.38,1.38,0,0,1,1.4,1.4ZM23.57,44.92a54.34,54.34,0,0,1,12.19-2.5A83.2,83.2,0,0,1,66.82,45v7.4H23.57ZM65.06,26.53c-3.76-4-10.37-6.11-19.77-6.11H45.1c-9.34,0-16,2.07-19.77,6.11a10.35,10.35,0,0,0-3,7.21v34.1a.61.61,0,0,0,1.22,0V60H66.82v7.82a.61.61,0,0,0,1.22,0v-34A10.38,10.38,0,0,0,65.06,26.53Z"/>
  </g>
</svg>
