<svg id="a62dddbf-5738-4c66-85c8-2496d66baf81" data-name="Layer 1" xmlns="http://www.w3.org/2000/svg" viewBox="0 0 91.21 91.21">
  <defs>
    <style>
      .bda1f9ce-8298-4353-83f1-59e5fd73b4ea {
        fill: none;
        stroke: #ae9142;
        stroke-miterlimit: 20;
      }

      .f0509804-f2d9-47cd-affe-93aa14684b36 {
        fill: #ae9142;
      }
    </style>
  </defs>
  <g>
    <path class="bda1f9ce-8298-4353-83f1-59e5fd73b4ea" d="M.5,45.6A45.11,45.11,0,1,1,45.6,90.71,45.1,45.1,0,0,1,.5,45.6Z"/>
    <path class="f0509804-f2d9-47cd-affe-93aa14684b36" d="M26.58,58.54a.47.47,0,0,1-.62-.25.46.46,0,0,1,.26-.6h0A54,54,0,0,1,38.39,54.5,60.72,60.72,0,0,1,35,43.11a4,4,0,0,0-3.24,2.34,6,6,0,0,0-.57,2.18.47.47,0,0,1-.29.41.46.46,0,0,1-.5-.08,3.79,3.79,0,0,1-.34-5.35,3.58,3.58,0,0,1,.68-.61A7.66,7.66,0,0,0,27,44.45a.47.47,0,0,1-.66.07.44.44,0,0,1-.17-.26A4.89,4.89,0,0,1,30,38.5a4.82,4.82,0,0,1,1.51-.08,6.65,6.65,0,0,0-4.56.19.5.5,0,0,1-.5-.07.46.46,0,0,1-.14-.48,4.42,4.42,0,0,1,2.18-2.65,4.54,4.54,0,0,1,5.7,1.2A4.52,4.52,0,0,1,42,34.91a.44.44,0,0,1,.06.49.47.47,0,0,1-.42.26h0a6.63,6.63,0,0,0-4.27,1.6,5,5,0,0,1,1.41-.51,5,5,0,0,1,3.69.7,4.84,4.84,0,0,1,2.12,3.09.46.46,0,0,1-.19.46.48.48,0,0,1-.5,0,7.56,7.56,0,0,0-4.58-.76,3.94,3.94,0,0,1,.82.27A3.82,3.82,0,0,1,42,45.64a.47.47,0,0,1-.43.27h0a.49.49,0,0,1-.43-.27c-.07-.15-1.69-3.55-5.18-2.73.4,1.93,1.73,8,3.42,11.46a49.36,49.36,0,0,1,11.46,0,123,123,0,0,0,2-16.78,4.53,4.53,0,0,0-4.4,1.25,6.85,6.85,0,0,0-1.41,2.07.47.47,0,0,1-.44.3.5.5,0,0,1-.41-.24,4.16,4.16,0,0,1,1.68-5.66,4.25,4.25,0,0,1,1.27-.44,6.73,6.73,0,0,0-2.1,0,9.07,9.07,0,0,0-3.21,1.08.49.49,0,0,1-.51,0,.43.43,0,0,1-.2-.44,5.11,5.11,0,0,1,2-3.41,5.48,5.48,0,0,1,4-1,4.47,4.47,0,0,1,1,.23l3.1,2.13a3.91,3.91,0,0,0-1.41-4.51,4,4,0,0,0-3-.69A4,4,0,0,0,47,29l1.89,1.31a8.19,8.19,0,0,0-2.9-.41.5.5,0,0,1-.45-.23.46.46,0,0,1,0-.5,4.93,4.93,0,0,1,8.67,1.42,4.9,4.9,0,0,1,6.17-1.76A4.82,4.82,0,0,1,63,31.58a.47.47,0,0,1-.11.49.49.49,0,0,1-.49.1,7.24,7.24,0,0,0-5.4.27,5.5,5.5,0,0,1,2-.09,5.31,5.31,0,0,1,4.58,6,.46.46,0,0,1-.81.24A8.26,8.26,0,0,0,58,36.09a4.12,4.12,0,0,1,1.73,5.58,4,4,0,0,1-.73,1,.48.48,0,0,1-.67,0,.53.53,0,0,1-.14-.28c0-.19-.45-4.31-4.37-4.74a123.8,123.8,0,0,1-2,16.79l1,.14a36.29,36.29,0,0,1,10.51,3.13.46.46,0,0,1,.19.63.48.48,0,0,1-.64.18,37.2,37.2,0,0,0-11.22-3.15,51.86,51.86,0,0,1-2.43,8.36.48.48,0,0,1-.61.26.46.46,0,0,1-.27-.59h0a50.14,50.14,0,0,0,2.38-8.14,50.28,50.28,0,0,0-24.07,3.29ZM50.2,31.23l-1.3-.9a5.75,5.75,0,0,1,2.17,1.28A5.59,5.59,0,0,0,50.2,31.23Zm3.47,3.53,0,0,0-.07,0,0A.14.14,0,0,1,53.67,34.76Zm4.6,2.68A3.25,3.25,0,0,0,56,36.5h0a3.42,3.42,0,0,0-1.4.33,5.86,5.86,0,0,1,4.35,4.4Zm.55-4.18a4.45,4.45,0,0,0-3.27.84,4.37,4.37,0,0,0-1.45,1.84,7,7,0,0,1,3.2-.8,8.74,8.74,0,0,1,5.33,2.1,4.42,4.42,0,0,0-3.81-4ZM57,29.56a3.93,3.93,0,0,0-2.61,3.95c2.16-3,5.55-2.8,7.26-2.47A4,4,0,0,0,57,29.56ZM44.3,34.62a10.08,10.08,0,0,1,3.78-.81,7,7,0,0,1,4.83,1.87,4.4,4.4,0,0,0-3.83-3.77,4.53,4.53,0,0,0-3.34.84A4.3,4.3,0,0,0,44.3,34.62Zm7.8,1.87a3.32,3.32,0,0,0-3.76-.42,3.23,3.23,0,0,0-1.64,3.49ZM41.4,44.31a2.89,2.89,0,0,0-1.68-2.92,3,3,0,0,0-2.24-.11,2.84,2.84,0,0,0-1,.61,4.89,4.89,0,0,1,.54,0A5.5,5.5,0,0,1,41.4,44.31ZM39,37.65a4,4,0,0,0-3.19,3.54c2.6-2.64,5.94-1.95,7.58-1.38A4,4,0,0,0,39,37.65ZM36.27,35a3.51,3.51,0,0,0-1.06,4,5.76,5.76,0,0,1,3.39-3.64,7.83,7.83,0,0,1,2-.55,3.63,3.63,0,0,0-4.3.18Zm-6.64,2.17a5.84,5.84,0,0,1,4.56,2,3.55,3.55,0,0,0-2.56-3.29,3.62,3.62,0,0,0-2.7.28,3.49,3.49,0,0,0-1.32,1.21A8.1,8.1,0,0,1,29.63,37.18ZM27,43.11a7.07,7.07,0,0,1,7.58-1.65A4,4,0,0,0,33.19,40a4,4,0,0,0-3-.57A4,4,0,0,0,27,43.11Zm3.48,3.4A5.35,5.35,0,0,1,34,42.38a3,3,0,0,0-3.19.79,2.91,2.91,0,0,0-.39,3.34Z"/>
  </g>
</svg>
