<svg id="fd412c1a-3ac4-404d-bb41-49a0c85183ad" data-name="Layer 1" xmlns="http://www.w3.org/2000/svg" viewBox="0 0 91.21 91.21">
  <defs>
    <style>
      .f0cd8235-30a5-471e-a45b-4d2917758e75 {
        fill: none;
        stroke: #ae9142;
        stroke-miterlimit: 20;
      }

      .a5adb0cd-25a9-483d-9b6e-9bcc3a958465 {
        fill: #ae9142;
      }
    </style>
  </defs>
  <g>
    <path class="f0cd8235-30a5-471e-a45b-4d2917758e75" d="M.5,45.6A45.11,45.11,0,1,1,45.6,90.71,45.1,45.1,0,0,1,.5,45.6Z"/>
    <path class="a5adb0cd-25a9-483d-9b6e-9bcc3a958465" d="M58.26,33.3A7.46,7.46,0,0,1,50.64,26a7.27,7.27,0,0,1,4.92-6.79.57.57,0,0,1,.71.23.73.73,0,0,1,.11.7A6.58,6.58,0,0,0,56,22.29a6.11,6.11,0,0,0,6.21,5.86,7,7,0,0,0,2.23-.35.7.7,0,0,1,.82.11.74.74,0,0,1,.11.71A7.7,7.7,0,0,1,58.26,33.3Zm-6.21-7.38a6.11,6.11,0,0,0,6.21,5.86,6.38,6.38,0,0,0,5-2.46,3.14,3.14,0,0,1-1,.12,7.45,7.45,0,0,1-7.61-7.27c0-.23.11-.58.11-.93Z"/>
    <path class="a5adb0cd-25a9-483d-9b6e-9bcc3a958465" d="M74.07,59.08c.47,0,.82.35.71.7a.75.75,0,0,1-.71.7H17a.7.7,0,0,1,0-1.4h2L32.37,37.52a1.29,1.29,0,0,1,.82-.35,1.22,1.22,0,0,1,.7.35l1.76,2.23L37.4,37.4a.91.91,0,0,1,.59-.23c.23,0,.47,0,.58.23l1.76,2.35,1.76-2.35a.91.91,0,0,1,.59-.23c.23,0,.46,0,.58.23L45,39.75l1.64-2.35a1.14,1.14,0,0,1,1.64,0l13,21.68h4.81V49.94A2.11,2.11,0,0,0,64,47.83h0a2.1,2.1,0,0,0-2.11,2.09v0a.75.75,0,0,1-.7.7.67.67,0,0,1-.71-.7,3.63,3.63,0,0,1,3.63-3.52h.24a4.56,4.56,0,0,0-4.1-.23.53.53,0,0,1-.59,0c-.23,0-.35-.12-.47-.35a.57.57,0,0,1,0-.59c0-.23.12-.35.36-.47a6,6,0,0,1,6.09.59,4.5,4.5,0,0,0-3.87-2.23.75.75,0,0,1-.7-.7.67.67,0,0,1,.7-.7,6,6,0,0,1,4.45,2v-3a.71.71,0,0,1,1.41,0v3a5.67,5.67,0,0,1,4.45-2,.7.7,0,1,1,0,1.4,4.37,4.37,0,0,0-3.86,2.23,6,6,0,0,1,6.09-.59,1.73,1.73,0,0,1,.35.47.53.53,0,0,1,0,.59,1.65,1.65,0,0,1-.47.35.51.51,0,0,1-.58,0,4.61,4.61,0,0,0-4.1.24h.23a3.55,3.55,0,0,1,3.63,3.51.67.67,0,0,1-.7.7.68.68,0,0,1-.71-.7,2.1,2.1,0,0,0-2.09-2.11h0a2.1,2.1,0,0,0-2.1,2.09v9.16Zm-14.29,0L47.36,38.93l-1.87,2.46a.91.91,0,0,1-.59.23c-.23,0-.47,0-.58-.23L42.56,39,40.8,41.39a.9.9,0,0,1-.58.23c-.24,0-.47,0-.59-.23L37.87,39l-1.75,2.35a.79.79,0,0,1-1.18,0l-1.87-2.46L20.77,59.08Z"/>
  </g>
</svg>
