<svg id="be4a3eba-0b56-4018-b3d4-9257d833162c" data-name="Layer 1" xmlns="http://www.w3.org/2000/svg" viewBox="0 0 91.21 91.21">
  <defs>
    <style>
      .b7697c3a-72ef-4657-9539-ac963a490a03 {
        fill: none;
        stroke: #ae9142;
        stroke-miterlimit: 20;
      }

      .be5e96d5-87d3-4ed9-a873-d9cc4cc63285 {
        fill: #ae9142;
      }
    </style>
  </defs>
  <g>
    <path class="b7697c3a-72ef-4657-9539-ac963a490a03" d="M.5,45.6A45.11,45.11,0,1,1,45.6,90.71,45.1,45.1,0,0,1,.5,45.6Z"/>
    <g>
      <path class="be5e96d5-87d3-4ed9-a873-d9cc4cc63285" d="M47.89,47.36h-3.4a.59.59,0,1,0,0,1.17h3.4a.59.59,0,1,0,0-1.17Z"/>
      <path class="be5e96d5-87d3-4ed9-a873-d9cc4cc63285" d="M64.45,67.82H62.07a3.57,3.57,0,0,0-7,0H35.82a3.57,3.57,0,0,0-7,0H27V63.91H64.45Zm-5.88,2.83a2.17,2.17,0,1,1,2.22-2.17A2.2,2.2,0,0,1,58.57,70.65Zm-26.25,0a2.17,2.17,0,1,1,2.22-2.17A2.2,2.2,0,0,1,32.32,70.65ZM54.49,45.13h2.73a1.53,1.53,0,0,1,1.55,1.5V61.08a1.53,1.53,0,0,1-1.55,1.51H54.49Zm-2.59,0h1.24V62.59H51.9Zm-11.25,0h9.91V62.59H40.65Zm0-1.32V42.69a1.6,1.6,0,0,1,1.61-1.58h6.68a1.61,1.61,0,0,1,1.62,1.58v1.12Zm-2.58,1.32H39.3V62.59H38.07ZM33,61.08V46.63a1.52,1.52,0,0,1,1.54-1.5h2.21V62.59H34.51A1.52,1.52,0,0,1,33,61.08ZM27,38.89a18.73,18.73,0,0,1,37.45,0v23.7H59.66a2.78,2.78,0,0,0,.45-1.51V46.63a2.86,2.86,0,0,0-2.89-2.82H51.9V42.69a2.93,2.93,0,0,0-3-2.9H42.27a2.93,2.93,0,0,0-3,2.9v1.12H34.52a2.86,2.86,0,0,0-2.89,2.83V61.08a2.77,2.77,0,0,0,.45,1.51H27V38.88Zm38.8,23.7V38.88a20.08,20.08,0,0,0-40.15,0V62.59H23.43a.67.67,0,0,0-.67.66h0a.66.66,0,0,0,.67.66h2.22v4.57a.67.67,0,0,0,.68.66h2.5a3.58,3.58,0,0,0,7,0H55.08a3.57,3.57,0,0,0,7,0h3.05a.68.68,0,0,0,.68-.66h0V63.91h2a.67.67,0,0,0,.67-.66h0a.67.67,0,0,0-.67-.66Z"/>
    </g>
  </g>
</svg>
