<svg id="a16215cf-30c2-46a8-8a0f-76da24f70d91" data-name="Layer 1" xmlns="http://www.w3.org/2000/svg" viewBox="0 0 12.59 22">
  <defs>
    <style>
      .b5f65f7b-b64f-42bb-81d0-630b1c1dad34 {
        fill: #ae9142;
      }
    </style>
  </defs>
  <path class="b5f65f7b-b64f-42bb-81d0-630b1c1dad34" d="M1,22a1,1,0,0,1-.71-.29,1,1,0,0,1,0-1.42l9.84-9.83L.34,1.75A1,1,0,0,1,1.66.25L12.25,9.66l0,0a.92.92,0,0,1,.19.25,1,1,0,0,1,.12.46h0a1.15,1.15,0,0,1-.08.41,1.08,1.08,0,0,1-.2.29l0,0L1.71,21.71A1,1,0,0,1,1,22Z"/>
</svg>
