<svg xmlns="http://www.w3.org/2000/svg" viewBox="0 0 31 30">
  <g>
    <path d="M17.82,27.69l-9-6.59V8.9l9-6.59Zm-10.51-7H3.11a1.56,1.56,0,0,1-1.56-1.56h0V10.84A1.56,1.56,0,0,1,3.11,9.28h4.2Zm12.07,8.5V.78A.78.78,0,0,0,18.6,0a.79.79,0,0,0-.46.15L7.83,7.73H3.11A3.11,3.11,0,0,0,0,10.84H0v8.32a3.11,3.11,0,0,0,3.11,3.11H7.83l10.31,7.58a.77.77,0,0,0,1.09-.17.75.75,0,0,0,.15-.46Z" fill="#fff"/>
    <path d="M22.63,18a.77.77,0,0,0-.39,1,.77.77,0,0,0,1,.39,4.86,4.86,0,0,0,0-8.89A.78.78,0,0,0,22.63,12a3.3,3.3,0,0,1,1.7,4.35A3.26,3.26,0,0,1,22.63,18Z" fill="#fff"/>
    <path d="M23.47,6.28a.78.78,0,0,0-.3,1.53,7.34,7.34,0,0,1,0,14.39.76.76,0,0,0-.52,1,.77.77,0,0,0,.82.56,8.9,8.9,0,0,0,0-17.44Z" fill="#fff"/>
  </g>
</svg>
