<svg id="Layer_1" data-name="Layer 1" xmlns="http://www.w3.org/2000/svg" viewBox="0 0 51.27 51.16"><defs><style>.cls-1{fill:#af9243;stroke:#fff;stroke-miterlimit:10;stroke-width:0.25px;}</style></defs><path class="cls-1" d="M42.71,39.5a.72.72,0,0,0-.22.69l1.84,8.57-7.86-4.24a.6.6,0,0,0-.39-.08.63.63,0,0,0-.38.08l-7.86,4.24,2-8.49a.61.61,0,0,0-.23-.69l-6-5.87,8.26-1.25a.82.82,0,0,0,.61-.46l3.71-7.86L39.88,32a.77.77,0,0,0,.61.46l8.27,1.25Zm-26-23.09a2.48,2.48,0,0,1-2.31,0,9.94,9.94,0,0,0,3-4,2.54,2.54,0,0,1-.69,4Zm-2.31-4.49a3.17,3.17,0,0,1,1.69-.24,8.13,8.13,0,0,1-2.78,3.71,2.53,2.53,0,0,1,1-3.44l.05,0ZM20.24,45.5a1.55,1.55,0,0,1-1.31.08,1.73,1.73,0,0,1-1-.84L5.5,20.12l.93-2.48A8.94,8.94,0,0,0,13,17.26a3.93,3.93,0,0,0,4.47.46,4.07,4.07,0,0,0-3.67-7.27h0a4.06,4.06,0,0,0-1.9,5.42l0,.07V16a7.92,7.92,0,0,1-5,.23L10.83,5.68a.5.5,0,0,1,.54-.32l15,4.17,7.86,15.29L31.26,31,21.84,32.4a.74.74,0,0,0-.62.53.69.69,0,0,0,.24.78l6.78,6.64L28,41.5Zm-17.68-33a7.54,7.54,0,0,1,3.24-10A7.16,7.16,0,0,1,11.44,2a7.19,7.19,0,0,1,3.78,2.78l-3.3-.93a2,2,0,0,0-2.4,1.31l-4,10.51A6.89,6.89,0,0,1,2.56,12.47Zm48.5,20.41a.75.75,0,0,0-.63-.54L41.08,31l-4.27-8.91a.71.71,0,0,0-.69-.46.73.73,0,0,0-.7.46l-.46,1L27.73,8.84a1.49,1.49,0,0,0-1-.78L17.3,5.36a.47.47,0,0,1-.14-.3A9,9,0,0,0,11.92.58,8.85,8.85,0,0,0,5,1.12,9,9,0,0,0,1.09,13.23,8.51,8.51,0,0,0,5,17.16l-1,2.41a1.62,1.62,0,0,0,.08,1.31L16.57,45.36A3,3,0,0,0,18.47,47,3.3,3.3,0,0,0,21,46.76l6.55-3.33-1.47,6.64a.77.77,0,0,0,.32.78.81.81,0,0,0,.85.07l9-4.86,9,4.86a.71.71,0,0,0,.85-.07.76.76,0,0,0,.31-.78l-2.17-9.8L51,33.63A.59.59,0,0,0,51.06,32.88Z"/><path class="cls-1" d="M30.75,24.13a.75.75,0,0,0-1-.33h0L15.32,31.15a.73.73,0,0,0-.32,1l0,0a.71.71,0,0,0,1,.33l0,0,14.41-7.32a.69.69,0,0,0,.38-.89Z"/><path class="cls-1" d="M28.05,19a.72.72,0,0,0-1-.32l0,0L12.62,26.05a.74.74,0,0,0-.18,1,.72.72,0,0,0,.88.27L27.73,20a.72.72,0,0,0,.34-1,.17.17,0,0,1,0-.05Z"/><path class="cls-1" d="M20.87,34.48a.78.78,0,0,0-1-.39L17.24,35.4a.71.71,0,0,0-.33,1s0,0,0,0a.73.73,0,0,0,1,.32h0l2.55-1.31a.62.62,0,0,0,.46-.74A1.08,1.08,0,0,0,20.87,34.48Z"/><path class="cls-1" d="M24.56,37.87a.68.68,0,0,0-.91-.35l-.09,0-4.1,2a.7.7,0,0,0-.33.94l0,0a.69.69,0,0,0,.91.37l.1,0,4-2.09a.7.7,0,0,0,.38-.92Z"/></svg>