<svg id="a02bd509-4e02-4362-9a76-a6abb8c11ec7" data-name="Layer 1" xmlns="http://www.w3.org/2000/svg" viewBox="0 0 35.6 35.6">
  <defs>
    <style>
      .b232dbcc-ce7a-423a-b56c-4a9b13281d10 {
        fill: #fff;
      }
    </style>
  </defs>
  <path class="b232dbcc-ce7a-423a-b56c-4a9b13281d10" d="M26.26,10.44a.76.76,0,0,0,0-1.08l0,0a.76.76,0,0,0-1.08,0l0,0L17.8,16.69,10.44,9.34a.76.76,0,0,0-1.08,0l0,0a.77.77,0,0,0,0,1.08l0,0,7.36,7.36L9.33,25.16a.77.77,0,0,0,0,1.08l0,0a.79.79,0,0,0,.56.23.8.8,0,0,0,.55-.23l7.36-7.36,7.36,7.36a.79.79,0,0,0,.55.23.82.82,0,0,0,.56-.23.78.78,0,0,0,0-1.09l0,0L18.91,17.8ZM17.8,34A16.22,16.22,0,1,1,34,17.8,16.24,16.24,0,0,1,17.8,34Zm0-34A17.8,17.8,0,1,0,35.6,17.8,17.83,17.83,0,0,0,17.8,0Z"/>
</svg>
