<svg id="Layer_1" data-name="Layer 1" xmlns="http://www.w3.org/2000/svg" viewBox="0 0 41.54 41.27"><defs><style>.cls-1{fill:#af9243;}</style></defs><g id="Homepage"><g id="RED-SEA-1.1.1-Master-Plan"><g id="Group-13"><g id="Homepage-2" data-name="Homepage"><g id="RED-SEA-1.1.2-PIF-Vision-2030"><g id="noun_race-flag_2094361_ae9142" data-name="noun race-flag 2094361 ae9142"><path id="Shape" class="cls-1" d="M41,7.16H30.64V3.7a.52.52,0,0,0-.52-.52H5.2v-.6a2.6,2.6,0,0,0-5.2,0V40.75a.52.52,0,0,0,.52.52H4.68a.52.52,0,0,0,.52-.52V26.89H16.94v5a.51.51,0,0,0,.52.51H41a.51.51,0,0,0,.52-.51V7.67A.51.51,0,0,0,41,7.16ZM4.16,40.24H1V2.58a1.56,1.56,0,0,1,3.12,0Zm1-36H29.6V25.86H5.2ZM40.51,31.38H18V26.89H30.12a.52.52,0,0,0,.52-.52V8.19h9.87Z"/></g></g></g></g></g></g></svg>