<svg id="Layer_1" data-name="Layer 1" xmlns="http://www.w3.org/2000/svg" viewBox="0 0 40.19 52.33"><defs><style>.cls-1{fill:#af9243;stroke:#fff;stroke-miterlimit:10;stroke-width:0.5px;}</style></defs><path class="cls-1" d="M17,32.61a.84.84,0,0,0,1.2,0l0,0h0l4.88-4.87a.86.86,0,0,0,0-1.21.84.84,0,0,0-1.19,0l0,0L17,31.4A.86.86,0,0,0,17,32.61Z"/><path class="cls-1" d="M16.35,27.13a1.33,1.33,0,1,1,1.33,1.33A1.34,1.34,0,0,1,16.35,27.13Z"/><path class="cls-1" d="M21.22,32a1.34,1.34,0,1,1,1.34,1.34A1.34,1.34,0,0,1,21.22,32Z"/><path class="cls-1" d="M38.19,49.73,36,48.63a.85.85,0,0,0-.76,0L33,49.73V14.05h5.18Zm-6.9-37.4H26.11V9.73A9.38,9.38,0,0,0,22.22,2.1a7.73,7.73,0,0,1,9,6.25,7.39,7.39,0,0,1,.12,1.33Zm-6.94,13a6,6,0,0,1-8.53,8.54h0a6,6,0,0,1,8.53-8.54Zm6.94,25H4.56A2.59,2.59,0,0,1,2,47.67H2V14.05H7.15v3.51H6.28a.87.87,0,0,0,0,1.74H9.73a.87.87,0,1,0,0-1.74H8.87V14.05H19.21v7.82a7.79,7.79,0,1,0,1.73,0V14.05h3.45v3.51h-.86a.87.87,0,0,0,0,1.74H27a.87.87,0,0,0,0-1.74h-.87V14.05h5.18ZM8.87,9.73A7.72,7.72,0,0,1,16.55,2a5.93,5.93,0,0,1,1.33.12A9.46,9.46,0,0,0,14,9.73V12.4H8.87ZM20.08,2.8a7.73,7.73,0,0,1,4.31,6.93V12.4H15.76V9.73A7.76,7.76,0,0,1,20.08,2.8ZM33,12.33V9.73A9.44,9.44,0,0,0,23.61.25a9.27,9.27,0,0,0-3.53.67A9.47,9.47,0,0,0,7.8,6.25a9.63,9.63,0,0,0-.65,3.48V12.4h-6a.85.85,0,0,0-.87.78h0V47.67A4.31,4.31,0,0,0,4.56,52H32.21a.62.62,0,0,0,.27,0h.08l3.06-1.53L38.68,52a.86.86,0,0,0,1.16-.39.65.65,0,0,0,.09-.38v-38a.85.85,0,0,0-.85-.85Z"/></svg>