<svg id="Layer_1" data-name="Layer 1" xmlns="http://www.w3.org/2000/svg" viewBox="0 0 45.09 46.46"><defs><style>.cls-1{fill:#af9243;stroke:#b09244;stroke-miterlimit:10;stroke-width:0.41px;}</style></defs><g id="Homepage"><g id="RED-SEA-1.1.1-Master-Plan"><g id="Group-13"><path class="cls-1" d="M40.43,33.49a.4.4,0,0,0,.4-.4v-1a.41.41,0,0,0-.81,0v1A.4.4,0,0,0,40.43,33.49Z"/><path class="cls-1" d="M40.43,28.68a.41.41,0,0,0,.4-.41v-1a.41.41,0,0,0-.81,0v1A.41.41,0,0,0,40.43,28.68Z"/><path class="cls-1" d="M40.43,23.86a.4.4,0,0,0,.4-.41V22.5a.41.41,0,1,0-.81,0v.95A.41.41,0,0,0,40.43,23.86Z"/><path class="cls-1" d="M18.31,14.44H25.7a.41.41,0,0,0,0-.81H18.31a.41.41,0,1,0,0,.81Z"/><path class="cls-1" d="M40.43,38.14a.4.4,0,0,0,.4-.41v-.95a.41.41,0,1,0-.81,0v.95A.41.41,0,0,0,40.43,38.14Z"/><path class="cls-1" d="M37.33,22.09a.4.4,0,0,0-.4.41v.95a.4.4,0,0,0,.4.41.41.41,0,0,0,.41-.41V22.5A.41.41,0,0,0,37.33,22.09Z"/><path class="cls-1" d="M34.24,31.73a.4.4,0,0,0-.41.4v1a.41.41,0,0,0,.81,0v-1A.4.4,0,0,0,34.24,31.73Z"/><path class="cls-1" d="M34.24,36.37a.41.41,0,0,0-.41.41v.95a.41.41,0,1,0,.81,0v-.95A.4.4,0,0,0,34.24,36.37Z"/><path class="cls-1" d="M34.24,22.09a.41.41,0,0,0-.41.41v.95a.41.41,0,1,0,.81,0V22.5A.4.4,0,0,0,34.24,22.09Z"/><path class="cls-1" d="M34.24,26.91a.4.4,0,0,0-.41.4v1a.41.41,0,1,0,.81,0v-1A.4.4,0,0,0,34.24,26.91Z"/><path class="cls-1" d="M37.33,36.37a.4.4,0,0,0-.4.41v.95a.4.4,0,0,0,.4.41.41.41,0,0,0,.41-.41v-.95A.41.41,0,0,0,37.33,36.37Z"/><path class="cls-1" d="M37.33,26.91a.4.4,0,0,0-.4.4v1a.41.41,0,0,0,.4.41.42.42,0,0,0,.41-.41v-1A.41.41,0,0,0,37.33,26.91Z"/><path class="cls-1" d="M37.33,31.73a.4.4,0,0,0-.4.4v1a.4.4,0,0,0,.4.4.41.41,0,0,0,.41-.4v-1A.41.41,0,0,0,37.33,31.73Z"/><path class="cls-1" d="M18.31,30.8H25.7a.41.41,0,0,0,0-.81H18.31a.41.41,0,1,0,0,.81Z"/><path class="cls-1" d="M18.31,18.53H25.7a.41.41,0,0,0,0-.81H18.31a.41.41,0,1,0,0,.81Z"/><path class="cls-1" d="M7.35,36.59a.41.41,0,0,0,.41-.41v-1a.41.41,0,1,0-.81,0v1A.4.4,0,0,0,7.35,36.59Z"/><path class="cls-1" d="M7.35,31.77a.4.4,0,0,0,.41-.4v-1a.41.41,0,0,0-.81,0v1A.4.4,0,0,0,7.35,31.77Z"/><path class="cls-1" d="M4.26,31.77a.4.4,0,0,0,.4-.4v-1a.41.41,0,0,0-.81,0v1A.4.4,0,0,0,4.26,31.77Z"/><path class="cls-1" d="M44.48,17.72H30.55V9.17a.41.41,0,0,0-.4-.41H26.92v-4a.4.4,0,0,0-.4-.41H22.41V.61a.41.41,0,1,0-.81,0V4.39H17.49a.4.4,0,0,0-.4.41v4H13.86a.41.41,0,0,0-.41.41V24L.52,27.09a.42.42,0,0,0-.32.4V45.85a.41.41,0,0,0,.41.41l43.84,0a.4.4,0,0,0,.41-.4l0-27.69a.39.39,0,0,0-.12-.28A.38.38,0,0,0,44.48,17.72Zm-6,24.39V45.4H36.19V42.11Zm.41-.81H35.79a.4.4,0,0,0-.4.41v3.7H30.56V18.53H44.08l0,26.87H39.29v-3.7A.41.41,0,0,0,38.88,41.3ZM17.9,8.76V5.2h8.21V8.76Zm11.84.81V45.42H14.26V9.57ZM13.45,24.86V45.43L1,45.45V27.81Z"/><path class="cls-1" d="M4.26,36.59a.4.4,0,0,0,.4-.41v-1a.41.41,0,1,0-.81,0v1A.41.41,0,0,0,4.26,36.59Z"/><path class="cls-1" d="M10.45,41.4a.41.41,0,0,0,.41-.4V40A.41.41,0,0,0,10,40v1A.41.41,0,0,0,10.45,41.4Z"/><path class="cls-1" d="M4.26,41.4a.4.4,0,0,0,.4-.4V40a.41.41,0,0,0-.81,0v1A.4.4,0,0,0,4.26,41.4Z"/><path class="cls-1" d="M7.35,41.4a.4.4,0,0,0,.41-.4V40A.41.41,0,0,0,7,40v1A.4.4,0,0,0,7.35,41.4Z"/><path class="cls-1" d="M18.31,26.71H25.7a.41.41,0,0,0,0-.81H18.31a.41.41,0,1,0,0,.81Z"/><path class="cls-1" d="M18.31,22.62H25.7a.41.41,0,0,0,0-.81H18.31a.41.41,0,1,0,0,.81Z"/><path class="cls-1" d="M18.31,34.89H25.7a.41.41,0,0,0,0-.81H18.31a.41.41,0,1,0,0,.81Z"/><path class="cls-1" d="M10.45,31.77a.41.41,0,0,0,.41-.4v-1a.41.41,0,0,0-.82,0v1A.41.41,0,0,0,10.45,31.77Z"/><path class="cls-1" d="M10.45,36.59a.41.41,0,0,0,.41-.41v-1a.41.41,0,0,0-.82,0v1A.41.41,0,0,0,10.45,36.59Z"/><path class="cls-1" d="M18.31,43.07H25.7a.41.41,0,0,0,0-.81H18.31a.41.41,0,1,0,0,.81Z"/><path class="cls-1" d="M18.31,39H25.7a.41.41,0,0,0,0-.81H18.31a.41.41,0,1,0,0,.81Z"/></g></g></g></svg>