<svg id="Layer_1" data-name="Layer 1" xmlns="http://www.w3.org/2000/svg" viewBox="0 0 51.02 50.35"><defs><style>.cls-1,.cls-2{fill:#af9243;}.cls-2{fill-rule:evenodd;}</style></defs><g id="Homepage"><g id="Homepage-2" data-name="Homepage"><g id="RED-SEA-1.4-Smart-_-Sustainable-4" data-name="RED-SEA-1.4-Smart-&amp;-Sustainable-4"><g id="Cloud-icon"><g id="noun_Rain_1544544_ae9142" data-name="noun Rain 1544544 ae9142"><path id="Shape" class="cls-1" d="M37.91,32a10.86,10.86,0,0,0,.19-2C38.1,24.3,34,19.7,29,19.7a9.16,9.16,0,0,0-8.31,6,6.68,6.68,0,0,0-3.81-1.21A7.38,7.38,0,0,0,10,29.92a8.59,8.59,0,0,0-.86-.05c-5,0-9.14,4.6-9.14,10.24S4.1,50.35,9.14,50.35h28.8a.57.57,0,0,0,.18,0C42.4,50,45.73,46,45.73,41.16S42.26,32.22,37.91,32Zm0,17.05a.53.53,0,0,0-.12,0H9.14c-4.41,0-8-4-8-9s3.58-8.95,8-8.95a7.51,7.51,0,0,1,1.18.1A.56.56,0,0,0,11,30.8a6.28,6.28,0,0,1,5.89-5,5.71,5.71,0,0,1,3.72,1.42.5.5,0,0,0,.51.11.66.66,0,0,0,.38-.4A8.11,8.11,0,0,1,29,21c4.41,0,8,4,8,9a9.78,9.78,0,0,1-.32,2.52.69.69,0,0,0,.1.58.52.52,0,0,0,.48.24h.32c3.89,0,7,3.55,7,7.9S41.65,48.82,37.91,49Z"/></g><g id="noun_wifi_1583300_ae9142" data-name="noun wifi 1583300 ae9142"><path id="Path" class="cls-2" d="M43.37,19.22a.55.55,0,0,0,.78.23.63.63,0,0,0,.22-.84A18.57,18.57,0,0,0,28.09,8.36,18.57,18.57,0,0,0,11.81,18.61a.64.64,0,0,0,.21.84.56.56,0,0,0,.79-.24A17.42,17.42,0,0,1,28.09,9.59,17.41,17.41,0,0,1,43.37,19.22Z"/><path id="Path-2" data-name="Path" class="cls-2" d="M51,14.39C46.29,5.52,37.53,0,28.09,0S9.89,5.51,5.23,14.39a.64.64,0,0,0,.21.84A.56.56,0,0,0,6.23,15C10.68,6.51,19.06,1.23,28.09,1.23S45.49,6.51,50,15a.57.57,0,0,0,.5.31.48.48,0,0,0,.28-.08A.63.63,0,0,0,51,14.39Z"/></g></g></g></g></g></svg>