<svg id="Layer_1" data-name="Layer 1" xmlns="http://www.w3.org/2000/svg" viewBox="0 0 39 45"><defs><style>.cls-1,.cls-2{fill:#af9243;}.cls-1{fill-rule:evenodd;}</style></defs><g id="Homepage"><g id="RED-SEA-1.1.1-Master-Plan"><g id="Group"><g id="noun_Baggage_1128889_ae9142" data-name="noun Baggage 1128889 ae9142"><path id="Path" class="cls-1" d="M21.45,24h-2.9a.5.5,0,1,0,0,1h2.9a.5.5,0,1,0,0-1Z"/><path id="Shape" class="cls-2" d="M38.43,37h-1.7V16.76A17,17,0,0,0,19.6,0,17,17,0,0,0,2.47,16.76V37H.57a.56.56,0,1,0,0,1.12h1.9V42a.58.58,0,0,0,.57.57H5.18a3.05,3.05,0,0,0,6,0H27.58a3.05,3.05,0,0,0,6,0h2.61a.57.57,0,0,0,.57-.57v-3.9h1.7a.56.56,0,1,0,0-1.12ZM3.62,16.76a15.83,15.83,0,0,1,16-15.64,15.83,15.83,0,0,1,16,15.64V37H31.5a2.36,2.36,0,0,0,.38-1.29V23.38A2.44,2.44,0,0,0,29.42,21H24.88V20a2.51,2.51,0,0,0-2.53-2.47h-5.7A2.51,2.51,0,0,0,14.12,20v1H10a2.44,2.44,0,0,0-2.46,2.41V35.71A2.28,2.28,0,0,0,8,37H3.62V16.76Zm5.1,19V23.38A1.3,1.3,0,0,1,10,22.09h1.89V37H10A1.3,1.3,0,0,1,8.72,35.71Zm4.35-13.62h1V37h-1ZM23.73,21H15.27V20a1.37,1.37,0,0,1,1.38-1.35h5.7A1.37,1.37,0,0,1,23.73,20v1Zm-8.46,1.12h8.46V37H15.27Zm9.61,0h1.05V37H24.88Zm2.2,0h2.34a1.3,1.3,0,0,1,1.31,1.29V35.71A1.3,1.3,0,0,1,29.42,37H27.08ZM8.16,43.88A1.86,1.86,0,1,1,10.06,42,1.88,1.88,0,0,1,8.16,43.88Zm22.41,0A1.86,1.86,0,1,1,32.46,42,1.88,1.88,0,0,1,30.57,43.88Zm5-2.42h-2a3.05,3.05,0,0,0-6,0H11.15a3.05,3.05,0,0,0-6,0H3.62V38.12h32Z"/></g></g></g></g></svg>