<svg xmlns="http://www.w3.org/2000/svg" viewBox="0 0 19.81 19.81">
  <title>instagram</title>
  <g>
    <path d="M18.16,16.51a1.65,1.65,0,0,1-1.65,1.65H3.3a1.65,1.65,0,0,1-1.65-1.65h0V3.3A1.65,1.65,0,0,1,3.3,1.65H16.51A1.65,1.65,0,0,1,18.16,3.3ZM16.51,0H3.3A3.3,3.3,0,0,0,0,3.3H0V16.51a3.3,3.3,0,0,0,3.3,3.3H16.51a3.3,3.3,0,0,0,3.3-3.3h0V3.3A3.3,3.3,0,0,0,16.51,0Z" fill="#fff"/>
    <path d="M9.9,13.21A3.31,3.31,0,1,1,13.21,9.9,3.31,3.31,0,0,1,9.9,13.21ZM9.9,5a5,5,0,1,0,5,5A5,5,0,0,0,9.9,5Z" fill="#fff"/>
    <path d="M14,4.54a1.24,1.24,0,0,1,2.48,0h0a1.24,1.24,0,1,1-2.48,0Z" fill="#fff"/>
  </g>
</svg>
