<svg id="Layer_1" data-name="Layer 1" xmlns="http://www.w3.org/2000/svg" viewBox="0 0 43.02 53.67"><defs><style>.cls-1{fill:#af9243;stroke:#fff;stroke-miterlimit:10;stroke-width:0.5px;}</style></defs><path class="cls-1" d="M41,50.73a.91.91,0,0,1-.88.89H27.7a.92.92,0,0,1-.89-.89v-23a.91.91,0,0,1,.89-.88,1.44,1.44,0,0,1,1.37,1.1,3.23,3.23,0,0,0,3.17,2.42h3.43a3.25,3.25,0,0,0,3.13-2.45,1.38,1.38,0,0,1,1.37-1.1.9.9,0,0,1,.84.88V50.73Zm-15.93-23V49H23.16a3.54,3.54,0,0,0-6.84,0H12.56a3.54,3.54,0,0,0-6.84,0H3a.88.88,0,0,1-1-.79V18a.88.88,0,0,1,.86-.89H10v3.54h1.78V17.07h5.3v3.54h1.78V17.07h7.08a.9.9,0,0,1,.89.89v7.23A2.74,2.74,0,0,0,25.05,27.7ZM19.73,51.62a1.82,1.82,0,1,1,.08,0h-.08Zm-10.63,0a1.78,1.78,0,1,1,1.79-1.78A1.79,1.79,0,0,1,9.1,51.62ZM11.83,4.68a2.66,2.66,0,0,1,5.31,0V15.29H11.77Zm25.5,22.14a3.4,3.4,0,0,0-.25.67,1.46,1.46,0,0,1-1.37,1.1H32.24a1.46,1.46,0,0,1-1.37-1.1,2.68,2.68,0,0,0-.24-.67ZM40.21,25H28.59V18A2.66,2.66,0,0,0,26,15.29H18.85V4.68a4.43,4.43,0,0,0-8.86,0V15.29H2.9A2.66,2.66,0,0,0,.25,18V48.12A2.74,2.74,0,0,0,2.9,50.77H5.72a3.54,3.54,0,0,0,6.84,0h3.77a3.54,3.54,0,0,0,6.84,0h1.89a2.65,2.65,0,0,0,2.65,2.65H40.12a2.65,2.65,0,0,0,2.65-2.65V27.7A2.75,2.75,0,0,0,40.21,25Z"/><path class="cls-1" d="M32.13,23.28h1.76a3.52,3.52,0,0,0-3.51-3.54h0V21.5a1.78,1.78,0,0,1,1.79,1.77Z"/><path class="cls-1" d="M35.67,23.28h1.77a7.09,7.09,0,0,0-7.09-7.08h0V18A5.31,5.31,0,0,1,35.67,23.28Z"/><path class="cls-1" d="M39.21,23.28H41A10.63,10.63,0,0,0,30.35,12.65h0v1.77a8.86,8.86,0,0,1,8.86,8.85Z"/><path class="cls-1" d="M6.27,45v-22h2V45Z"/><path class="cls-1" d="M12.29,45v-22h2V45Z"/><path class="cls-1" d="M16.29,45v-22h2V45Z"/><path class="cls-1" d="M22.31,45v-22h2V45Z"/></svg>