<svg id="Layer_1" data-name="Layer 1" xmlns="http://www.w3.org/2000/svg" viewBox="0 0 37.71 44.14"><defs><style>.cls-1{fill:none;stroke:#af9244;stroke-linecap:round;stroke-linejoin:round;stroke-width:1.09px;}</style></defs><g id="Homepage"><g id="Outline_Icons" data-name="Outline Icons"><polygon class="cls-1" points="26.35 43.6 16.47 43.6 12.52 31.82 30.3 31.82 26.35 43.6"/><path class="cls-1" d="M25.4,16.09c-2.72,1.81-4.12,5.1,0,7.86,2.26,5.62,6.46,4.11,9,1.51s3.79-9.88,1.95-13.86C32.33,14.58,28.79,13.85,25.4,16.09Z"/><path class="cls-1" d="M17.54,8.17c2.92,3.42,4.47,7.92-2.51,11-3.19,7.08-8,4.46-11.28.67S-.71,5.89,2.13.54C7.38,5,13.88,3.89,17.54,8.17Z"/><path class="cls-1" d="M31.05,19.46c-6.78,3.37-10.17,12.35-10.17,12.35A48.42,48.42,0,0,0,6.73,8.54"/></g></g></svg>