<svg xmlns="http://www.w3.org/2000/svg" viewBox="0 0 24.4 19.81">
  <title>twitter</title>
  <path d="M21.89,4.94c0,.22,0,.43,0,.65A14.12,14.12,0,0,1,7.68,19.81,14.13,14.13,0,0,1,0,17.57a9.61,9.61,0,0,0,1.21.06,10,10,0,0,0,6.2-2.13A5,5,0,0,1,2.74,12a7.3,7.3,0,0,0,.94.08A5.75,5.75,0,0,0,5,11.94,5,5,0,0,1,1,7V7a5.06,5.06,0,0,0,2.26.63A5,5,0,0,1,1.7.91,14.19,14.19,0,0,0,12,6.14,5.45,5.45,0,0,1,11.89,5a5,5,0,0,1,8.65-3.42A9.83,9.83,0,0,0,23.72.37a5,5,0,0,1-2.2,2.76,10.34,10.34,0,0,0,2.88-.78A11,11,0,0,1,21.89,4.94Z" fill="#fff"/>
</svg>
