<svg id="eb0b5a9b-984e-43ae-989f-f187870e266b" data-name="Layer 1" xmlns="http://www.w3.org/2000/svg" viewBox="0 0 30 33.87">
  <defs>
    <style>
      .f61b9b45-ea59-4599-8331-06c7aea96878 {
        fill: #ae9142;
      }
    </style>
  </defs>
  <path class="f61b9b45-ea59-4599-8331-06c7aea96878" d="M14.06,31.9c3.69,0,7.09-1.06,8.94-4.24a10.06,10.06,0,0,0,1.37-5.16v-.94H1.87v.94c.81,5.58,3.69,9.39,9.38,9.4Zm11.26-4.71h1.19a1.62,1.62,0,0,0,1.62-1.61V23.44H26.22c0,.17,0,.33-.06.5l0,.26c-.07.46-.16.91-.27,1.36l-.08.26a10.4,10.4,0,0,1-.45,1.33v0Zm-18,6.56C5.72,33.51,0,27.42,0,22.5V20.63a.94.94,0,0,1,.94-.94H25.31a.94.94,0,0,1,.94.94v.93h2.81a.94.94,0,0,1,.94.94v3.08a3.48,3.48,0,0,1-3.49,3.48H24.33c-1.34,2.1-4.48,4.62-5.59,4.69S8.9,34,7.31,33.75Zm7.28-19A1.78,1.78,0,0,1,15,15.94a1.88,1.88,0,0,1-3.75,0,1.9,1.9,0,0,1,1.88-1.88,1.88,1.88,0,0,1,1.46.71ZM16.76,13a.91.91,0,0,1-.72-.34,3.74,3.74,0,0,0-5.27-.55,3.58,3.58,0,0,0-.55.55,1,1,0,0,1-1.33.12.93.93,0,0,1-.13-1.3,5.62,5.62,0,0,1,7.91-.83,5.85,5.85,0,0,1,.82.83.92.92,0,0,1-.14,1.31,1,1,0,0,1-.59.22Zm2.18-3.64A7.48,7.48,0,0,0,8.42,8.23,7.28,7.28,0,0,0,7.31,9.34.94.94,0,0,1,5.85,8.16,9.36,9.36,0,0,1,19,6.77,9.61,9.61,0,0,1,20.4,8.16a.94.94,0,0,1-1.46,1.18ZM3.07,6.16a.92.92,0,0,1-.13-1.31,13.1,13.1,0,0,1,20.37,0,.92.92,0,0,1-.13,1.31A.94.94,0,0,1,21.86,6,11.27,11.27,0,0,0,6,4.4,11.42,11.42,0,0,0,4.39,6,.94.94,0,0,1,3.07,6.16Z"/>
</svg>
