<svg id="f304051d-286b-47a5-b3c0-c63d8376442b" data-name="Layer 1" xmlns="http://www.w3.org/2000/svg" viewBox="0 0 202 86">
  <defs>
    <style>
      .b72b700b-7f7d-4ecc-a8ff-17ef41a7a699 {
        fill: #fff;
      }
    </style>
  </defs>
  <g>
    <path class="b72b700b-7f7d-4ecc-a8ff-17ef41a7a699" d="M67.5,86.07h-.29c-2.39-.25-3.14-2.19-3.9-4.18A15,15,0,0,0,60,76.21a20.54,20.54,0,0,0-5.67-3.92C51.9,71,49.82,70,49.68,67.69A3.21,3.21,0,0,1,52,64.62a3.51,3.51,0,0,0,.48-.22c.16-.08.35-.21.37-.35s-.1-.24-.16-.34a4,4,0,0,0-.27-.4,6.53,6.53,0,0,1-1.29-3.58,3.23,3.23,0,0,1,3.12-3.33h.19c3.42.13,4.51,3.28,5.67,6.61.88,2.54,1.87,5.42,4,7.52,1.68,1.69,2.09,1.77,2.86,1.78,1.59.08,2.09-1.2,2.77-3.29s1.44-4.4,4.08-4.58a4,4,0,0,1,4.28,3.76c0,.12,0,.24,0,.36C78.14,71.07,76,73.09,74,75c-.5.47-1,.93-1.41,1.37-.71.65-.9,2.23-1,3.75v.13c-.28,2.34-.63,5.22-3.52,5.72h-.39ZM50.92,67.65c.1,1.46,1.5,2.25,3.95,3.53a21.16,21.16,0,0,1,6,4.07,16.07,16.07,0,0,1,3.63,6.1c.79,2.09,1.31,3.29,2.89,3.45h.38c1.81-.29,2.14-2,2.46-4.64v-.11c.21-1.76.43-3.57,1.47-4.53.45-.46.93-.92,1.44-1.4,1.86-1.77,3.79-3.6,3.82-5.57a2.8,2.8,0,0,0-2.73-2.86h-.3c-1.68.13-2.24,1.49-3,3.73-.65,2-1.4,4.27-4,4.18-1.28,0-1.94-.4-3.68-2.14-2.32-2.31-3.36-5.33-4.29-8-1.22-3.52-2.09-5.68-4.52-5.78a2,2,0,0,0-2.09,1.86.88.88,0,0,0,0,.23,5.28,5.28,0,0,0,1.1,2.85,2.39,2.39,0,0,1,.62,1.65,2.26,2.26,0,0,1-1.58,1.51c-.85.37-1.58.68-1.61,1.93Z"/>
    <path class="b72b700b-7f7d-4ecc-a8ff-17ef41a7a699" d="M44,64c-2.7-.06-5-3-6.79-5.4a25.09,25.09,0,0,0-1.8-2.18,49.86,49.86,0,0,0-9.92-7.54c-4-2.49-6.85-4.28-6.95-7.32a3.76,3.76,0,0,1,3.51-4h.24c2.21.12,3.21,1.87,4,3.27a4.67,4.67,0,0,0,1.35,1.79,1.24,1.24,0,0,0,1.15.13c1.05-.47.43-2.17.12-2.9a7.31,7.31,0,0,1-.73-3.24,3.55,3.55,0,0,1,3.61-3.51H32c2.2,0,3.47,1.38,3.47,3.77a23.4,23.4,0,0,1-.18,2.37c-.11.9-.18,1.8-.2,2.71a5.49,5.49,0,0,0,1.37,4.06c1.77,1.79,2.78,1.8,5,1.81h.32a2.82,2.82,0,0,1,3.12,2.47c0,.11,0,.21,0,.32a3.89,3.89,0,0,1-1.72,2.72c-.31.26-.47.4-.51.52,0,.49.29.77,1.75,1.45s3.52,1.64,3.64,4.25A4,4,0,0,1,43.88,64ZM22.21,38.81a2.52,2.52,0,0,0-2.48,2.57v.16c.08,2.37,2.71,4,6.36,6.27a51.17,51.17,0,0,1,10.14,7.72,28.47,28.47,0,0,1,1.92,2.32C39.81,60,41.88,62.71,44,62.76a2.8,2.8,0,0,0,2.93-2.66,2.47,2.47,0,0,0,0-.47c-.09-1.81-1.53-2.48-2.92-3.14s-2.6-1.2-2.47-2.72v-.16a2.33,2.33,0,0,1,.93-1.21,2.9,2.9,0,0,0,1.28-1.81c0-1-.73-1.52-1.91-1.52h-.37c-2.25,0-3.73,0-5.87-2.17A6.73,6.73,0,0,1,33.82,42,27.31,27.31,0,0,1,34,39.1c.08-.8.17-1.56.17-2.23,0-1.72-.71-2.51-2.24-2.52a2.33,2.33,0,0,0-2.59,2,1.27,1.27,0,0,0,0,.2A6.19,6.19,0,0,0,30,39.33a5.11,5.11,0,0,1,.53,2.27,2.79,2.79,0,0,1-.6,1.82,2.37,2.37,0,0,1-2.57.49,4.26,4.26,0,0,1-1.81-1.85c-.12-.2-.24-.4-.35-.6-.73-1.26-1.5-2.56-3-2.66Z"/>
    <path class="b72b700b-7f7d-4ecc-a8ff-17ef41a7a699" d="M84,68.21a3.52,3.52,0,0,1-3.2-3,24.8,24.8,0,0,1-.23-3.55,4.82,4.82,0,0,0-1.2-3.2A6.13,6.13,0,0,0,77,57.24c-2.29-.77-4.69-1.67-6.14-3.59a17.86,17.86,0,0,1-2.09-5.07,33.67,33.67,0,0,0-3-5.93,7.49,7.49,0,0,1-1.46-3.9A3.55,3.55,0,0,1,71,37.11a8.61,8.61,0,0,1,.65,4.11,1.38,1.38,0,0,0,.44,1.18,1.44,1.44,0,0,0,1.25-.09c1.29-.49,2.81-.89,4-.15a3.34,3.34,0,0,1,1.36,2.24,17.46,17.46,0,0,1,.15,2.7,8.08,8.08,0,0,0,1,4.13,7.88,7.88,0,0,0,4.18,3c1.65.59,3.38.87,5,1.4a5.33,5.33,0,0,1,1.83.91,2.24,2.24,0,0,1,.83,1.8c-.09,1-1,1.73-2,2.2a4.43,4.43,0,0,0-2.39,1.91c-.37.92,0,2-.12,2.95a3.19,3.19,0,0,1-2.87,2.82H84ZM67.8,36.6h-.37a2.25,2.25,0,0,0-1.87,2.3,1,1,0,0,0,0,.35,9.6,9.6,0,0,0,1.51,3.22c.38.63.79,1.32,1.22,2.09a24.22,24.22,0,0,1,2,5,7.61,7.61,0,0,0,2.44,4.26,11.58,11.58,0,0,0,4.18,2.09,8.75,8.75,0,0,1,3.22,1.55c1.54,1.25,1.63,3.85,1.71,5.94a8.16,8.16,0,0,0,.07,1.35A2.43,2.43,0,0,0,84,66.94h.16A2,2,0,0,0,86,64.83v-.44c0-.25,0-.51,0-.77,0-2.72,1.58-3.44,2.87-4,.87-.4,1.56-.76,1.66-1.44a.38.38,0,0,0,0-.21c-.3-.87-1.47-1.17-3.36-1.6a15.54,15.54,0,0,1-7.21-3.14c-2.09-1.67-2.23-5.35-2.35-7.54v-1C77.49,43.66,76.9,43,76,43a2.67,2.67,0,0,0-.4,0,9.31,9.31,0,0,0-1.74.47,3.51,3.51,0,0,1-1.23.29,1.69,1.69,0,0,1-1.13-.44c-1-.79-1-2.22-1-3.14v-.34a7.75,7.75,0,0,0,0-1.18,2.44,2.44,0,0,0-2.47-2.09Z"/>
    <path class="b72b700b-7f7d-4ecc-a8ff-17ef41a7a699" d="M54.57,49.7c-2.94-.05-3.63-1.94-4.18-3.46a5,5,0,0,0-1.11-2.09,5.81,5.81,0,0,0-2.09-1.23c-1.58-.67-3.57-1.5-3.63-4.18a3.13,3.13,0,0,1,2.89-3.36h.1a6.09,6.09,0,0,1,3.25,1.05,2.58,2.58,0,0,0,1.42.48c.51,0,1-.06,1.53-.13a16.24,16.24,0,0,1,1.84-.12,3,3,0,0,1,3,3v.09A4.29,4.29,0,0,1,57,41.67a1.59,1.59,0,0,0-.25.72,1.47,1.47,0,0,0,.36.74,5.13,5.13,0,0,1,1.05,2.81,3.56,3.56,0,0,1-3.36,3.75h-.27Zm-4.45-6.42a6.32,6.32,0,0,1,1.41,2.51c.53,1.47.95,2.61,3,2.66a2.3,2.3,0,0,0,2.34-2.26,1.93,1.93,0,0,0,0-.24,4,4,0,0,0-.83-2.09,2.8,2.8,0,0,1-.58-1.29,2.52,2.52,0,0,1,.34-1.44,3.1,3.1,0,0,0,.39-1.36,1.73,1.73,0,0,0-1.62-1.85h-.12a16,16,0,0,0-1.7.12,12.8,12.8,0,0,1-1.85.14,3.63,3.63,0,0,1-1.85-.68,4.9,4.9,0,0,0-2.64-.88,1.86,1.86,0,0,0-1.76,2,.49.49,0,0,0,0,.12c0,1.89,1.36,2.43,2.88,3.07A6.88,6.88,0,0,1,50.12,43.28Z"/>
    <path class="b72b700b-7f7d-4ecc-a8ff-17ef41a7a699" d="M14.08,38.83c-2.46,0-4.09-1.6-5.65-3.13-.68-.6-1.36-1.25-2.09-1.88A8.47,8.47,0,0,0,3.5,32.46C1.94,31.91.37,31.41,0,29.06q0-.4,0-.81C0,26,1.26,24.49,2.34,23.17c.25-.31.52-.62.75-.93a9.76,9.76,0,0,0,1.86-6,11.84,11.84,0,0,0-.1-1.68c-.12-1-.32-2-.53-3a25.48,25.48,0,0,1-.65-4.68c0-2.37,1.12-3.94,3.13-4.18a5.34,5.34,0,0,1,.69,0c1.94,0,3.14,1.27,3.36,3.48q0,.34,0,.69a21,21,0,0,1-.68,4.32v.07a13.5,13.5,0,0,0-.28,1.38.29.29,0,0,0,.16.26c.19.06.38-.14.51-.27l.33-.38V12.1a3.82,3.82,0,0,1,2.22-1.53,1.62,1.62,0,0,1,.44,0,2.78,2.78,0,0,1,2.82,2.35,5.61,5.61,0,0,1,0,.58c0,2.75-2.43,5.87-7.16,9.29-.63.46-1.88,1.39-1.75,2.31.11.74,1,.79,1.57.81a7.71,7.71,0,0,0,1.78-.3h.06a12.87,12.87,0,0,1,2.69-.41h.11a2.62,2.62,0,0,1,2.85,2.35,4.51,4.51,0,0,1,0,.52c-.05,2.91-2.91,3-4.18,3h-.59a.18.18,0,0,0-.17.27.46.46,0,0,0,.2.13,3.28,3.28,0,0,0,.82.14l1,.1c1.25.06,3.81.21,4.18,2.84a4.69,4.69,0,0,1,0,.53,3.61,3.61,0,0,1-3,3.63c-.24,0-.49,0-.74,0Zm-6.61-35a5.42,5.42,0,0,0-.57,0c-1.83.22-2.09,1.92-2.09,2.91a23.65,23.65,0,0,0,.63,4.43c.19,1,.41,2.09.54,3.14a16.08,16.08,0,0,1,.11,1.84A11,11,0,0,1,4,23c-.24.32-.5.63-.78,1-1,1.29-2.09,2.49-2.09,4.29a3.21,3.21,0,0,0,0,.62c.21,1.48,1.05,1.83,2.64,2.37A10.18,10.18,0,0,1,7.1,32.88c.72.59,1.42,1.22,2.09,1.88,1.53,1.51,2.85,2.8,4.82,2.81h.58a2.32,2.32,0,0,0,1.94-2.38,2.28,2.28,0,0,0,0-.37c-.18-1.48-1.46-1.67-3-1.76-1.05-.05-2.7,0-3.05-1.25A1.39,1.39,0,0,1,11.38,30a1.09,1.09,0,0,1,.3-.07,6,6,0,0,1,.74,0c1.85,0,2.92-.36,2.94-1.78a2.16,2.16,0,0,0,0-.36,1.42,1.42,0,0,0-1.54-1.29h-.17a12.54,12.54,0,0,0-2.44.39h-.07a9.7,9.7,0,0,1-2,.32H9a2.52,2.52,0,0,1-2.7-1.62A2.91,2.91,0,0,1,6.23,25c0-1.05.8-2.17,2.28-3.23,4.33-3.14,6.62-6,6.63-8.28a2.8,2.8,0,0,0,0-.41,1.53,1.53,0,0,0-1.59-1.29h-.26a2.84,2.84,0,0,0-1.46,1.12V13A2.28,2.28,0,0,1,10,14a1.27,1.27,0,0,1-1.15-.72A4,4,0,0,1,9,10.85v0a21.15,21.15,0,0,0,.66-4,5,5,0,0,0,0-.55c-.16-1.6-.84-2.36-2.09-2.36Z"/>
    <path class="b72b700b-7f7d-4ecc-a8ff-17ef41a7a699" d="M93.33,32.77c0-1.22.23-1.52,1.33-1.53,3.7,0,5,2,5,5.93s-1.05,6.07-5,6.07c-1.11,0-1.34-.28-1.34-1.53Zm1.77-1.88c-.68,0-1.87.05-2.7.05H92c-.7,0-1.32-.06-1.74-.06v.36c1.21.05,1.45.24,1.45,1.53v8.91c0,1.3-.24,1.54-1.45,1.54v.36c.5-.06,1.44-.06,2.21-.06s2,.06,2.51.06c4.11,0,6.47-2.57,6.47-6.47s-2-6.19-6.31-6.22Z"/>
    <path class="b72b700b-7f7d-4ecc-a8ff-17ef41a7a699" d="M107.88,34.46c1.19,0,1.69,1.51,1.69,3.25h-3.9C105.87,35.46,106.69,34.46,107.88,34.46ZM111,41.29a2.72,2.72,0,0,1-2.63,1.79c-1.37,0-2.73-1.43-2.73-3.88a8.77,8.77,0,0,1,.07-1.15h5.58c0-2.7-1.26-3.92-3.35-3.92-2.44,0-4,1.93-4,5.07,0,2.74,1.51,4.63,4.1,4.63a3.51,3.51,0,0,0,3.35-2.4Z"/>
    <path class="b72b700b-7f7d-4ecc-a8ff-17ef41a7a699" d="M121.5,34.37v.36c-.44.05-.82.34-1.17,1.26l-2.92,7.67h-.3l-3.24-7.91c-.4-.93-.8-1-1.05-1v-.37c.46,0,1,.07,1.57.07s1.61,0,2.33-.07v.37c-.68,0-1.26,0-1.26.61a2.17,2.17,0,0,0,.18.79l2.2,5.44,2-5.23a2.14,2.14,0,0,0,.19-.82c0-.56-.41-.8-1.32-.86v-.35h1.51C120.74,34.28,121.18,34.4,121.5,34.37Z"/>
    <path class="b72b700b-7f7d-4ecc-a8ff-17ef41a7a699" d="M124.48,37.71c.2-2.25,1-3.25,2.21-3.25s1.75,1.51,1.69,3.25Zm5.33,3.58a2.7,2.7,0,0,1-2.62,1.79c-1.38,0-2.74-1.43-2.74-3.88a8.77,8.77,0,0,1,.07-1.15h5.58c0-2.7-1.25-3.92-3.34-3.92-2.45,0-4,1.93-4,5.07,0,2.74,1.51,4.63,4.1,4.63a3.51,3.51,0,0,0,3.35-2.4Z"/>
    <path class="b72b700b-7f7d-4ecc-a8ff-17ef41a7a699" d="M134.84,42.08c0,.9.38,1.16,1.36,1.16v.34c-.41,0-1.35-.07-2.16-.07a18.53,18.53,0,0,0-2.17.07v-.36c1,0,1.36-.26,1.36-1.16V32.9c0-1-.32-1.41-1.36-1.41v-.35c.38,0,.74.05,1.11.05a6.17,6.17,0,0,0,1.86-.23Z"/>
    <path class="b72b700b-7f7d-4ecc-a8ff-17ef41a7a699" d="M141.93,34.54c1.36,0,2.33,1.37,2.33,4.5s-1,4.48-2.33,4.48S139.6,42.18,139.6,39,140.58,34.54,141.93,34.54ZM146,39c0-3.49-1.75-4.86-4-4.86S137.9,35.67,137.9,39s1.77,4.84,4,4.84S146,42.47,146,39Z"/>
    <path class="b72b700b-7f7d-4ecc-a8ff-17ef41a7a699" d="M155.07,38.8c0,2.54-.57,4.62-2.57,4.58a2,2,0,0,1-1.9-1.15V36.88c.39-1.52,1.34-2.26,2.38-2.26,1.38,0,2.09,1.35,2.09,4.18Zm1.75-.24c0-2.88-1.46-4.43-3.33-4.48A3,3,0,0,0,150.63,36V34.13a6.07,6.07,0,0,1-1.85.24h-1.12v.38c1.05,0,1.37.53,1.37,1.57v9c0,.86-.32,1.11-1.18,1.11v.37c.38,0,1.18-.08,1.93-.08,1,0,2.05.08,2.57.08V46.4c-1.07,0-1.72-.25-1.72-1.3V42.82a2.61,2.61,0,0,0,2.09,1C155.63,43.79,156.82,41.14,156.82,38.56Z"/>
    <path class="b72b700b-7f7d-4ecc-a8ff-17ef41a7a699" d="M172.32,41.92c0,1,.38,1.28,1.37,1.28v.38c-.41,0-1.37-.08-2.15-.08a13.63,13.63,0,0,0-2,.08v-.36c.86,0,1.18-.28,1.18-1.28V36.75c0-1.1-.07-2.09-1.36-2.09S167,36.07,167,37.9v4c0,1,.38,1.29,1.35,1.29v.38c-.41,0-1.35-.08-2.09-.08a14.08,14.08,0,0,0-2,.08v-.33c.86,0,1.17-.28,1.17-1.28V36.75c0-1.1-.06-2.09-1.34-2.09s-2.42,1.43-2.42,3.25v4c0,1,.33,1.29,1.18,1.29v.38c-.37,0-1.22-.08-2-.08a15.9,15.9,0,0,0-2.14.08v-.33c1,0,1.35-.28,1.35-1.28V36.32c0-1-.32-1.57-1.35-1.57v-.38h1.1a6.46,6.46,0,0,0,1.86-.24v2.09a3.07,3.07,0,0,1,2.93-2.15,2.09,2.09,0,0,1,2.39,1.74,2,2,0,0,1,0,.35,3,3,0,0,1,3-2.09,2.42,2.42,0,0,1,1.86.67,3.38,3.38,0,0,1,.59,2.35Z"/>
    <path class="b72b700b-7f7d-4ecc-a8ff-17ef41a7a699" d="M179.21,34.46c1.19,0,1.76,1.51,1.69,3.25H177C177.2,35.46,178,34.46,179.21,34.46Zm3.13,6.83a2.72,2.72,0,0,1-2.63,1.79c-1.37,0-2.74-1.43-2.74-3.88a8.77,8.77,0,0,1,.07-1.15h5.59c0-2.7-1.26-3.92-3.35-3.92-2.45,0-4,1.93-4,5.07,0,2.74,1.52,4.63,4.11,4.63a3.5,3.5,0,0,0,3.34-2.4Z"/>
    <path class="b72b700b-7f7d-4ecc-a8ff-17ef41a7a699" d="M192.36,34.8a3.23,3.23,0,0,1,.61,2.35v4.77c0,1,.38,1.28,1.36,1.28v.38c-.41,0-1.36-.08-2.14-.08a13.56,13.56,0,0,0-2,.08v-.36c.85,0,1.17-.28,1.17-1.28V36.75c0-1.1-.15-2.09-1.44-2.09-1.5,0-2.51,1.44-2.51,3.25v4c0,1,.33,1.29,1.19,1.29v.38c-.37,0-1.22-.08-2-.08a15.82,15.82,0,0,0-2.14.08v-.33c1,0,1.35-.28,1.35-1.28V36.32c0-1-.32-1.57-1.35-1.57v-.38h1.1a6.46,6.46,0,0,0,1.86-.24v2.09a3.13,3.13,0,0,1,3.05-2.15A2.47,2.47,0,0,1,192.36,34.8Z"/>
    <path class="b72b700b-7f7d-4ecc-a8ff-17ef41a7a699" d="M201.12,34.39v.36h-2.61v6.91c0,1.13.43,1.52,1.15,1.52s1.23-.51,1.61-1.9l.36.08c-.26,1.4-.88,2.47-2.32,2.47a2.1,2.1,0,0,1-1.7-.6,3.14,3.14,0,0,1-.7-2.5v-6h-1.72v-.36h1.72V31.65a4.78,4.78,0,0,0,1.6-.25v3Z"/>
    <path class="b72b700b-7f7d-4ecc-a8ff-17ef41a7a699" d="M130.21,49.7a.63.63,0,0,0,.35.16c.25,0,.39-.33.46-1h.4c0,.88-.07,2.09-.07,4.12h-.41a4.74,4.74,0,0,0-.9-2.64,3.86,3.86,0,0,0-3.13-1.4c-2.33,0-3.87,2.41-3.87,6.27s1.74,6.18,4,6.18a3.74,3.74,0,0,0,3-1.36,5.33,5.33,0,0,0,.82-2.83h.41c0,2.18,0,3.39.07,4.3H131c-.07-.73-.19-1.05-.44-1.05a.81.81,0,0,0-.37.15,5.22,5.22,0,0,1-3.3,1.17c-3.4,0-5.67-2.39-5.67-6.48s2.36-6.69,5.68-6.69a5,5,0,0,1,3.27,1.15Z"/>
    <path class="b72b700b-7f7d-4ecc-a8ff-17ef41a7a699" d="M135.81,56.86c0-3.19,1-4.51,2.35-4.51s2.32,1.31,2.32,4.51-1,4.48-2.32,4.48-2.32-1.28-2.32-4.48ZM138.16,52c-2.26,0-4,1.43-4,4.86s1.79,4.85,4,4.85,4.06-1.42,4.06-4.85S140.43,52,138.16,52Z"/>
    <path class="b72b700b-7f7d-4ecc-a8ff-17ef41a7a699" d="M157.76,59.79c0,1.05.37,1.28,1.37,1.28v.38c-.42,0-1.37-.07-2.16-.07a15.31,15.31,0,0,0-2,.07v-.38c.85,0,1.18-.28,1.18-1.28V54.57c0-1.11-.08-2.09-1.36-2.09s-2.42,1.42-2.42,3.24v4c0,1,.38,1.28,1.35,1.28v.37c-.41,0-1.35-.06-2.09-.06a18.43,18.43,0,0,0-2,.06V61c.85,0,1.18-.29,1.18-1.28V54.49c0-1.11-.08-2.09-1.36-2.09S147,53.83,147,55.66v4c0,1,.33,1.27,1.18,1.27v.38c-.37,0-1.22-.06-2-.06a19.69,19.69,0,0,0-2.09.06V60.9c1,0,1.36-.28,1.36-1.27V54.19c0-1-.33-1.57-1.36-1.57v-.38a10.27,10.27,0,0,0,1.11,0A5.87,5.87,0,0,0,147.1,52v2.09A3.11,3.11,0,0,1,150,51.94a2.09,2.09,0,0,1,2.39,1.74,2,2,0,0,1,0,.35,3,3,0,0,1,3-2.09,2.38,2.38,0,0,1,1.85.67,3.33,3.33,0,0,1,.59,2.35Z"/>
    <path class="b72b700b-7f7d-4ecc-a8ff-17ef41a7a699" d="M167.73,56.68c0,2.54-.57,4.61-2.58,4.58a2,2,0,0,1-1.89-1.15V54.76c.39-1.51,1.33-2.26,2.38-2.26,1.38,0,2.09,1.34,2.09,4.18ZM166.12,52a3.08,3.08,0,0,0-2.84,1.88V52a5.84,5.84,0,0,1-1.86.24,10.09,10.09,0,0,1-1.1,0v.38c1,0,1.37.53,1.37,1.57v9.06c0,.86-.33,1.11-1.18,1.11v.38a14.38,14.38,0,0,1,1.92-.07c1,0,2.06.07,2.58.07v-.38c-1.08,0-1.73-.24-1.73-1.28v-2.4a2.55,2.55,0,0,0,2.09,1c2.91,0,4.09-2.64,4.09-5.22,0-2.87-1.44-4.43-3.34-4.43Z"/>
    <path class="b72b700b-7f7d-4ecc-a8ff-17ef41a7a699" d="M176.63,59.48a2.38,2.38,0,0,1-2,1.36,1.37,1.37,0,0,1-1.44-1.31,1.22,1.22,0,0,1,0-.27A2.42,2.42,0,0,1,174.91,57c1.13-.57,1.53-.76,1.72-1Zm.9-6.85a3,3,0,0,0-2.16-.68,4.59,4.59,0,0,0-2.51.67,1.6,1.6,0,0,0-.84,1.27,1,1,0,0,0,.85,1.1H173a.93.93,0,0,0,1-.81.76.76,0,0,0,0-.15,1.13,1.13,0,0,0-.84-1,2.27,2.27,0,0,1,1.77-.64c.93,0,1.66.31,1.66,1.8v1.07c0,.72-.94,1-2.14,1.52-1.83.7-2.88,1.38-2.88,2.79a2,2,0,0,0,2,2l.27,0a3.13,3.13,0,0,0,2.75-1.59c0,.84.29,1.59,1.54,1.59a2.38,2.38,0,0,0,1.63-.66l-.2-.3a1.18,1.18,0,0,1-.81.37c-.4,0-.54-.27-.54-.84v-5a3.15,3.15,0,0,0-.72-2.5Z"/>
    <path class="b72b700b-7f7d-4ecc-a8ff-17ef41a7a699" d="M189.61,52.63a3.27,3.27,0,0,1,.62,2.35v4.77c0,1,.37,1.28,1.35,1.28v.38c-.4,0-1.35-.07-2.14-.07a15.31,15.31,0,0,0-2,.07V61c.85,0,1.17-.28,1.17-1.28V54.53c0-1.11-.16-2.09-1.45-2.09-1.5,0-2.5,1.43-2.5,3.26v4c0,1,.32,1.28,1.19,1.28v.37c-.38,0-1.23-.06-2-.06s-1.74,0-2.15.06V61c1,0,1.36-.29,1.36-1.28V54.19c0-1-.33-1.57-1.36-1.57v-.38a10.27,10.27,0,0,0,1.11,0,5.91,5.91,0,0,0,1.86-.24v2.09a3.12,3.12,0,0,1,3.05-2.15,2.45,2.45,0,0,1,1.89.69Z"/>
    <path class="b72b700b-7f7d-4ecc-a8ff-17ef41a7a699" d="M201.24,52.24v.39c-.44,0-.82.33-1.16,1.25l-2.93,7.68-.61,1.52a3.05,3.05,0,0,1-.77,1.26,2.08,2.08,0,0,1-1.4.46,1,1,0,0,1-1.2-.86,1.09,1.09,0,0,1,0-.18.87.87,0,0,1,.81-.94h.14a.82.82,0,0,1,.91.73v.1a.91.91,0,0,1-.48.81.21.21,0,0,0,.11,0c.64,0,1.14-.42,1.51-1.4l.64-1.63-3.24-7.76c-.47-.93-.93-1-1.21-1v-.38a11.22,11.22,0,0,0,1.74.11c.73,0,1.61-.06,2.33-.11v.38c-.68,0-1.25,0-1.25.62a2.44,2.44,0,0,0,.23.88l2.15,5.34,2-5.18a2.33,2.33,0,0,0,.18-.83c0-.56-.42-.8-1.33-.85v-.37h1.5C200.35,52.26,200.8,52.26,201.24,52.24Z"/>
    <path class="b72b700b-7f7d-4ecc-a8ff-17ef41a7a699" d="M46.33,6.65a23.55,23.55,0,0,0,.09,2.69h-.75c-.47-4.58-1-6.15-5.06-6.15H38.82v18.7c0,2.67.57,3.08,3.33,3.14v.66c-1.15-.07-3-.1-4.83-.1-2,0-3.82,0-4.87.1V25c2.77-.1,3.32-.5,3.32-3.14V3.22H34c-4.12,0-4.61,1.58-5.06,6.15h-.76c.06-.69.09-1.64.09-2.69,0-.83-.06-2.54-.24-4.18,2.73.09,6.58.09,9.28.09s6.54,0,9.24-.12C46.42,3.86,46.34,5.25,46.33,6.65Z"/>
    <path class="b72b700b-7f7d-4ecc-a8ff-17ef41a7a699" d="M52.42,12.29A5.68,5.68,0,0,1,58,8.36a4.48,4.48,0,0,1,3.48,1.23c.81.9,1.16,2.09,1.16,4.33V22.7c0,1.83.69,2.36,2.5,2.36v.69c-.77,0-2.5-.13-4-.13s-3,.1-3.69.13v-.69c1.59,0,2.18-.53,2.18-2.36V13.19c0-2.09-.3-3.79-2.66-3.79-2.7,0-4.61,2.47-4.61,6v7.32c0,1.82.59,2.36,2.16,2.36v.69c-.69,0-2.22-.13-3.68-.13s-3.13.1-3.95.13V25c1.82,0,2.51-.53,2.51-2.36V3.94c0-2-.59-2.88-2.51-2.88V.38c.7.06,1.39.09,2.09.09A10.14,10.14,0,0,0,52.46,0Z"/>
    <path class="b72b700b-7f7d-4ecc-a8ff-17ef41a7a699" d="M73.11,9c2.22,0,3.24,2.76,3.14,6h-7.2c.35-4.18,2.09-6,4.06-6Zm5.74,12.48A5,5,0,0,1,74,24.81c-2.52,0-5-2.63-5-7.14a18.31,18.31,0,0,1,.12-2.09H79.37c0-4.95-2.29-7.22-6.14-7.22-4.52,0-7.44,3.54-7.44,9.33,0,5,2.8,8.53,7.56,8.53a6.47,6.47,0,0,0,6.16-4.42Z"/>
    <path class="b72b700b-7f7d-4ecc-a8ff-17ef41a7a699" d="M95.81,6c0-2.26.43-2.82,2.41-2.82,4,0,5.47,2,5.47,5.45,0,3-1,5.47-5.69,5.47H95.79V6ZM110,23.74c-.61.78-.89,1.26-1.8,1.26s-1.28-.8-1.68-2.7l-.82-3.37c-.62-2.72-1.69-3.84-4.6-4.32l-.41-.07c5-.77,6.39-4,6.39-6.33,0-3.2-2.63-5.71-7.93-5.71-.78,0-2.87.06-5,.06-1.44,0-3.11,0-4-.09v.65c2.23.1,2.67.43,2.67,2.83V22.32c0,2.38-.44,2.73-2.67,2.82v.66c.89-.09,2.49-.09,4.18-.09,1.52,0,3.14,0,4.18.09v-.66c-2.23-.09-2.66-.44-2.66-2.82V14.7H99c2.6,0,3.08,1.88,3.71,4.67l.73,3.27c.57,2.82,1.72,3.56,3.49,3.56s2.58-.74,3.51-2.09Z"/>
    <path class="b72b700b-7f7d-4ecc-a8ff-17ef41a7a699" d="M114.21,15h0v0Zm0,0c.36-4.14,2.09-6,4-6,2.22,0,3.25,2.76,3.14,6ZM124,21.52a5,5,0,0,1-4.84,3.29c-2.51,0-5-2.63-5-7.14a20.89,20.89,0,0,1,.1-2.09h10.29c0-4.95-2.3-7.22-6.16-7.22-4.51,0-7.43,3.54-7.43,9.33,0,5,2.79,8.53,7.56,8.53a6.45,6.45,0,0,0,6.15-4.42Z"/>
    <path class="b72b700b-7f7d-4ecc-a8ff-17ef41a7a699" d="M134.43,25.22c-2.92,0-4.46-2.61-4.46-7.91,0-5.56,1.91-8.2,4.51-8.2a3.58,3.58,0,0,1,3.67,2.54v9.78C137.64,23.92,136.08,25.22,134.43,25.22ZM141.16,0a10.67,10.67,0,0,1-3.42.47c-.71,0-1.39,0-2.09-.09V1c1.92,0,2.5.91,2.5,2.89V10.3a4.4,4.4,0,0,0-3.94-1.94c-4,0-7.41,3-7.44,9s2.6,8.91,6.71,8.91a4.66,4.66,0,0,0,4.67-3v2.91a10.48,10.48,0,0,1,3.43-.45c.66,0,1.35,0,2,.09v-.69c-1.92,0-2.51-.92-2.51-2.89Z"/>
    <path class="b72b700b-7f7d-4ecc-a8ff-17ef41a7a699" d="M164.53,3.31a2,2,0,0,0,1.13.47c.41,0,.59-.5.72-1.44h.78c-.09,1.15-.16,2.56-.16,6.71h-.75c-.24-3.14-1.75-6.32-5.4-6.32a3.74,3.74,0,0,0-4,3.48,1.82,1.82,0,0,0,0,.33c0,3,2.57,4.18,5.52,6,3.42,2.14,5.93,3.88,5.93,7.41,0,4.18-3.14,6.27-7,6.27A7.7,7.7,0,0,1,156.8,25a2.11,2.11,0,0,0-1.12-.47c-.41,0-.59.5-.72,1.44h-.76c.1-1.35.13-3.24.13-7.88h.76c.27,4,1.78,7.47,6,7.47a4.06,4.06,0,0,0,4.28-3.83,3.49,3.49,0,0,0,0-.56c0-2.66-2.09-4.18-5.13-6s-5.85-3.65-5.85-7.31c0-3.89,2.94-5.7,6.18-5.7a6.29,6.29,0,0,1,4,1.14Z"/>
    <path class="b72b700b-7f7d-4ecc-a8ff-17ef41a7a699" d="M173.84,15h0v0Zm0,0c.36-4.14,2.09-6,4-6,2.22,0,3.25,2.76,3.14,6Zm9.79,6.57a5,5,0,0,1-4.84,3.29c-2.52,0-5-2.63-5-7.14a16.26,16.26,0,0,1,.11-2.09h10.28c0-4.95-2.3-7.22-6.15-7.22-4.52,0-7.43,3.54-7.43,9.33,0,5,2.79,8.53,7.55,8.53a6.46,6.46,0,0,0,6.16-4.42Z"/>
    <path class="b72b700b-7f7d-4ecc-a8ff-17ef41a7a699" d="M195.61,22.17c-1.11,1.79-2.4,2.48-3.71,2.48-1.52,0-2.64-.91-2.64-2.88,0-2.54,1.75-3.49,3.19-4.18,2.09-1,2.78-1.35,3.14-1.87Zm1.63-12.58a5.71,5.71,0,0,0-4-1.23,8.47,8.47,0,0,0-4.64,1.21,2.93,2.93,0,0,0-1.55,2.35,1.81,1.81,0,0,0,1.56,2h.23a1.68,1.68,0,0,0,2-1.77,2,2,0,0,0-1.53-2A4.11,4.11,0,0,1,192.57,9c1.69,0,3.05.54,3.05,3.3V14.4c0,1.32-1.74,1.87-3.94,2.79-3.3,1.38-5.3,2.58-5.3,5.14s2,3.67,4.18,3.67a5.74,5.74,0,0,0,5.06-2.92c0,1.54.52,2.92,2.82,2.92a4.37,4.37,0,0,0,3-1.2l-.37-.57a2.22,2.22,0,0,1-1.47.7c-.8,0-1-.52-1-1.56V14.2c0-2.33-.27-3.56-1.31-4.61Z"/>
  </g>
</svg>
