<svg xmlns="http://www.w3.org/2000/svg" viewBox="0 0 32.7 50.33">
  <title>sun</title>
  <path d="M16.35,0A16.35,16.35,0,0,1,32.7,16.35c0,9-16.35,34-16.35,34S0,25.38,0,16.35A16.35,16.35,0,0,1,16.35,0Z" fill="#fff"/>
  <path d="M3,16.43A13.79,13.79,0,1,1,16.78,30.21,13.78,13.78,0,0,1,3,16.43Z" fill="#297f90"/>
  <g>
    <path d="M17.34,13.65V11.88a.81.81,0,0,0-.81-.81.86.86,0,0,0-.8.81v1.77a.81.81,0,1,0,1.61,0Z" fill="#fff"/>
    <path d="M12.41,12.92a.88.88,0,0,0-1.21,0,.9.9,0,0,0,0,1.22l1.29,1.29a.89.89,0,0,0,.57.24.91.91,0,0,0,.57-.24.88.88,0,0,0,0-1.21Z" fill="#fff"/>
    <path d="M20.57,12.92l-1.29,1.3a.88.88,0,0,0,0,1.21.85.85,0,0,0,.57.24.86.86,0,0,0,.56-.24l1.29-1.29a.86.86,0,0,0,0-1.21C21.46,12.52,21,12.52,20.57,12.92Z" fill="#fff"/>
    <path d="M21.62,18.18a.88.88,0,0,0,.81.56.29.29,0,0,0,.24-.08l1.78-.56A1,1,0,0,0,25,17.05,1,1,0,0,0,24,16.48l-1.78.57a.87.87,0,0,0-.58,1.09Z" fill="#fff"/>
    <path d="M9.18,16.48a.84.84,0,0,0-1,.49.83.83,0,0,0,.49,1l1.69.57c.08,0,.16.08.33.08a1,1,0,0,0,.8-.56A.84.84,0,0,0,11,17.05Z" fill="#fff"/>
    <path d="M8.05,21.25a.9.9,0,0,0,1.13.48,11.7,11.7,0,0,1,4.61-.81,12.56,12.56,0,0,1,2.5.33c.57.16,1.29.24,2.1.4a19.1,19.1,0,0,0,3.07.24c1,0,1.94-.08,2.91-.16a.86.86,0,0,0-.24-1.7,20.26,20.26,0,0,1-5.5,0,12.89,12.89,0,0,1-2-.4,14.07,14.07,0,0,0-2.82-.4,11.83,11.83,0,0,0-5.25,1,.77.77,0,0,0-.49,1.05Z" fill="#fff"/>
    <path d="M11.93,19a8.53,8.53,0,0,1,2-.08,14.13,14.13,0,0,1,2.91.41c.56.16,1.21.24,1.93.4.89.08,1.78.16,2.67.16a5,5,0,0,0-4.12-4.76,4.76,4.76,0,0,0-3.71,1.05A5,5,0,0,0,11.93,19Z" fill="#fff"/>
  </g>
</svg>
