<svg xmlns="http://www.w3.org/2000/svg" viewBox="0 0 32.7 50.33">
  <title>pointer_plane(1)</title>
  <path d="M16.35,0A16.35,16.35,0,0,1,32.7,16.35c0,9-16.35,34-16.35,34S0,25.38,0,16.35A16.35,16.35,0,0,1,16.35,0Z" fill="#fff"/>
  <path d="M3,16.43A13.79,13.79,0,1,1,16.78,30.21,13.78,13.78,0,0,1,3,16.43Z" fill="#297f90"/>
  <path d="M11.71,19.51l-2.46.1a.41.41,0,0,0-.29.14l-.33.34,2.89,1.39,1.4,2.89.33-.33c.1-.1.1-.19.15-.29l.09-2.46,3.67-3.23L20.48,25l.87-.87a.94.94,0,0,0,.24-.62l-.72-8.72,4-4.82a.75.75,0,0,0,.19-.53l.05-.63a.86.86,0,0,0-.92-.91l-.63,0a1,1,0,0,0-.53.2l-4.81,4-8.73-.73a.73.73,0,0,0-.62.24L8,12.52l6.94,3.33Z" fill="#fff"/>
</svg>
