<svg xmlns="http://www.w3.org/2000/svg" viewBox="0 0 32.7 50.33">
  <title>pointer_hotel(1)</title>
  <path d="M16.35,0A16.35,16.35,0,0,1,32.7,16.35c0,9-16.35,34-16.35,34S0,25.38,0,16.35A16.35,16.35,0,0,1,16.35,0Z" fill="#fff"/>
  <path d="M3,16.43A13.79,13.79,0,1,1,16.78,30.21,13.78,13.78,0,0,1,3,16.43Z" fill="#297f90"/>
  <path d="M19.42,11.68H17.17V10.31h2.25Zm0,3H17.17V13.29h2.25Zm0,3H17.17V16.27h2.25Zm-4.47-6H12.7V10.31H15Zm0,3H12.7V13.29H15Zm0,3H12.7V16.27H15ZM10.36,8a.36.36,0,0,0-.36.36h0v16.4a.36.36,0,0,0,.36.35h3.92V22.38a1.78,1.78,0,0,1,3.56,0v2.73h3.92a.36.36,0,0,0,.36-.35V8.36A.36.36,0,0,0,21.76,8Z" fill="#fff"/>
</svg>
