<svg id="Layer_1" data-name="Layer 1" xmlns="http://www.w3.org/2000/svg" viewBox="0 0 78 78"><defs><style>.cls-1{fill:#af9243;}</style></defs><g id="Homepage"><g id="RED-SEA-1.1.1-Master-Plan"><g id="Group"><g id="Homepage-2" data-name="Homepage"><g id="RED-SEA-1.2-Partnerships-5"><g id="noun_stars_966348_ae9142" data-name="noun stars 966348 ae9142"><path id="Shape" class="cls-1" d="M24.41,38.78a.86.86,0,0,0,.39-.13.64.64,0,0,0,.26-.58L24.8,34l2.66-3.12a.74.74,0,0,0,.13-.65.77.77,0,0,0-.45-.45l-4-1L21,25.26a.66.66,0,0,0-1.1,0l-2.21,3.51-4,1a.62.62,0,0,0-.45.45.78.78,0,0,0,.13.65L16,34l-.26,4.1a.72.72,0,0,0,.26.58.76.76,0,0,0,.65.07l3.84-1.56,3.83,1.56C24.28,38.78,24.34,38.78,24.41,38.78Zm-3.77-2.86c-.07,0-.13-.06-.26-.06s-.2,0-.26.06l-3.06,1.24.26-3.32a.88.88,0,0,0-.13-.45l-2.14-2.54,3.25-.78a.61.61,0,0,0,.39-.26L20.44,27l1.76,2.79a.53.53,0,0,0,.39.26l3.25.78-2.15,2.54a.61.61,0,0,0-.13.45l.26,3.32Z"/><path id="Shape-2" data-name="Shape" class="cls-1" d="M42.93,38.78a.86.86,0,0,0,.39-.13.61.61,0,0,0,.26-.58L43.32,34,46,30.85a.77.77,0,0,0,.13-.65.79.79,0,0,0-.46-.45l-4-1-2.21-3.51a.67.67,0,0,0-1.11,0l-2.21,3.51-4,1a.63.63,0,0,0-.46.45.81.81,0,0,0,.13.65L34.55,34l-.26,4.1a.69.69,0,0,0,.26.58.76.76,0,0,0,.65.07L39,37.16l3.84,1.56C42.74,38.78,42.8,38.78,42.93,38.78ZM39.1,35.92c-.07,0-.13-.06-.26-.06s-.2,0-.26.06l-3.12,1.24.26-3.32a1,1,0,0,0-.13-.45l-2.15-2.54,3.25-.78a.56.56,0,0,0,.39-.26L38.84,27l1.75,2.79a.54.54,0,0,0,.39.26l3.25.78-2.14,2.54a.61.61,0,0,0-.13.45l.26,3.32Z"/><path id="Shape-3" data-name="Shape" class="cls-1" d="M64.06,29.81l-4-1-2.21-3.51a.65.65,0,0,0-.52-.33.59.59,0,0,0-.52.33l-2.21,3.51-4,1a.66.66,0,0,0-.46.46.83.83,0,0,0,.13.65L53,34l-.26,4.09a.7.7,0,0,0,.26.59.73.73,0,0,0,.65.06l3.83-1.56,3.84,1.56c.06,0,.13.07.26.07a1,1,0,0,0,.39-.13.65.65,0,0,0,.26-.59L62,34l2.66-3.12a.74.74,0,0,0,.13-.65A2.61,2.61,0,0,0,64.06,29.81Zm-3.45,3.58a.61.61,0,0,0-.13.45l.26,3.32-3.12-1.24a.59.59,0,0,0-.45,0l-3.12,1.24.26-3.32a1,1,0,0,0-.13-.45L52,30.85l3.25-.78a.56.56,0,0,0,.39-.26L57.43,27l1.75,2.79a.54.54,0,0,0,.39.26l3.25.78Z"/><path id="Shape-4" data-name="Shape" class="cls-1" d="M36.3,47l-4-1-2.21-3.51a.67.67,0,0,0-1.11,0L26.88,46l-4,1a.65.65,0,0,0-.45.46.79.79,0,0,0,.13.65l2.66,3.12L25,55.29a.72.72,0,0,0,.26.59.73.73,0,0,0,.65.06l3.84-1.56,3.83,1.56c.07,0,.13.07.26.07a1,1,0,0,0,.39-.13.63.63,0,0,0,.26-.59L34,51.2l2.66-3.12A.68.68,0,0,0,36.3,47Zm-3.44,3.58a.61.61,0,0,0-.13.45L33,54.32l-3.12-1.24c-.07,0-.13-.06-.26-.06s-.2,0-.26.06l-3.12,1.24L26.49,51a1,1,0,0,0-.13-.45L24.21,48l3.25-.78a.56.56,0,0,0,.39-.26l1.76-2.79L31.36,47a.54.54,0,0,0,.39.26L35,48Z"/><path id="Shape-5" data-name="Shape" class="cls-1" d="M54.83,47l-4-1-2.21-3.51a.65.65,0,0,0-.52-.33.59.59,0,0,0-.52.33L45.4,46l-4,1a.66.66,0,0,0-.46.46.83.83,0,0,0,.13.65l2.6,3.12-.26,4.09a.72.72,0,0,0,.26.59.73.73,0,0,0,.65.06l3.84-1.56L52,55.94c.07,0,.13.07.26.07a1,1,0,0,0,.39-.13.63.63,0,0,0,.26-.59l-.45-4.09,2.66-3.12a.74.74,0,0,0,.13-.65A.65.65,0,0,0,54.83,47Zm-3.45,3.58a.61.61,0,0,0-.13.45l.26,3.32-3.12-1.24c-.06,0-.13-.06-.26-.06s-.19,0-.26.06l-3.12,1.24L45,51a.88.88,0,0,0-.13-.45L42.74,48,46,47.23a.61.61,0,0,0,.39-.26l1.75-2.79L49.89,47a.53.53,0,0,0,.39.26l3.25.78Z"/></g></g></g></g></g></g></svg>