<svg id="Layer_1" data-name="Layer 1" xmlns="http://www.w3.org/2000/svg" xmlns:xlink="http://www.w3.org/1999/xlink" viewBox="0 0 50.15 76.61"><defs><style>.cls-1,.cls-5{fill:#b09245;}.cls-1,.cls-2,.cls-4,.cls-7{stroke:#fff;stroke-linecap:round;stroke-linejoin:round;}.cls-1,.cls-2,.cls-4{stroke-width:0.56px;}.cls-2{fill:#f6f6f6;}.cls-3{fill:#297f90;}.cls-4,.cls-7{fill:none;}.cls-6{clip-path:url(#clip-path);}.cls-7{stroke-width:0.99px;}</style><clipPath id="clip-path"><circle id="SVGID" class="cls-1" cx="25.08" cy="24.65" r="20.46"/></clipPath></defs><path class="cls-2" d="M49.88,25.08c0,13.7-24.8,51.25-24.8,51.25S.28,38.78.28,25.08a24.8,24.8,0,0,1,49.6,0Z"/><circle id="SVGID-2" data-name="SVGID" class="cls-3" cx="25.08" cy="24.65" r="20.46"/><circle id="SVGID-3" data-name="SVGID" class="cls-4" cx="25.08" cy="24.65" r="20.46"/><circle id="SVGID-4" data-name="SVGID" class="cls-5" cx="25.08" cy="24.65" r="20.46"/><g class="cls-6"><path class="cls-7" d="M27.57,20.38l-9.76-2.16a5.19,5.19,0,0,0-4.44,1.41c2,1.49,6.59,4.65,6.59,4.65"/><path class="cls-7" d="M45.27,19s-2.49-6.73-9.9-2.69L13,28a1.8,1.8,0,0,1-2.15-.27C10,27,7.78,26.3,6.37,27l-1.48.81,6.05,5.72a1.7,1.7,0,0,0,1.55,0L22.72,29l-.81,11.44a7,7,0,0,0,4.51-3.7c1.35-3,5.46-11.85,5.46-11.85Z"/></g><circle id="SVGID-5" data-name="SVGID" class="cls-4" cx="25.08" cy="24.65" r="20.46"/></svg>