<svg id="Layer_1" data-name="Layer 1" xmlns="http://www.w3.org/2000/svg" xmlns:xlink="http://www.w3.org/1999/xlink" viewBox="0 0 50.15 76.61"><defs><style>.cls-1,.cls-5{fill:#b09245;}.cls-1,.cls-2,.cls-4{stroke:#fff;stroke-linecap:round;stroke-linejoin:round;stroke-width:0.56px;}.cls-2{fill:#f6f6f6;}.cls-3{fill:#297f90;}.cls-4{fill:none;}.cls-6{clip-path:url(#clip-path);}.cls-7{fill:#fff;}</style><clipPath id="clip-path"><circle id="SVGID" class="cls-1" cx="25.08" cy="24.65" r="20.46"/></clipPath></defs><path class="cls-2" d="M49.88,25.08c0,13.7-24.8,51.25-24.8,51.25S.28,38.78.28,25.08a24.8,24.8,0,0,1,49.6,0Z"/><circle id="SVGID-2" data-name="SVGID" class="cls-3" cx="25.08" cy="24.65" r="20.46"/><circle id="SVGID-3" data-name="SVGID" class="cls-4" cx="25.08" cy="24.65" r="20.46"/><circle id="SVGID-4" data-name="SVGID" class="cls-5" cx="25.08" cy="24.65" r="20.46"/><g class="cls-6"><g id="Homepage"><g id="noun_island_1259700_ae9142-_1_" data-name="noun_island_1259700_ae9142-(1)"><path id="Shape" class="cls-7" d="M9.07,40.27a44.31,44.31,0,0,1,21.19-2.9,44.82,44.82,0,0,1-2.1,7.18.41.41,0,0,0,.24.53.39.39,0,0,0,.15,0,.4.4,0,0,0,.38-.25,45.15,45.15,0,0,0,2.15-7.37A32.88,32.88,0,0,1,41,40.25a.41.41,0,0,0,.56-.16.4.4,0,0,0-.17-.55,31.6,31.6,0,0,0-9.25-2.76l-.85-.13A109.74,109.74,0,0,0,33,21.85c3.45.38,3.84,4,3.85,4.18a.43.43,0,0,0,.27.35l.14,0a.42.42,0,0,0,.3-.12,3.64,3.64,0,0,0,0-5.19,3.53,3.53,0,0,0-.84-.61,7.21,7.21,0,0,1,4.17,2.19.44.44,0,0,0,.31.13h.12a.42.42,0,0,0,.29-.34,4.68,4.68,0,0,0-4-5.27,4.87,4.87,0,0,0-1.75.08A6.35,6.35,0,0,1,40.58,17a.41.41,0,0,0,.54-.52A4.34,4.34,0,0,0,35.57,14a4.22,4.22,0,0,0-2.14,1.69,4.23,4.23,0,0,0-1.59-2.21,4.36,4.36,0,0,0-6,1,.41.41,0,0,0,0,.44.42.42,0,0,0,.39.21,6.93,6.93,0,0,1,2.64.38,5.23,5.23,0,0,1,1.83,1.1A5,5,0,0,0,29,16a4.82,4.82,0,0,0-3.55.89,4.52,4.52,0,0,0-1.8,3,.42.42,0,0,0,.18.4.43.43,0,0,0,.45,0,8.39,8.39,0,0,1,2.83-1,5.94,5.94,0,0,1,1.84,0,3.67,3.67,0,0,0-2.59,5.37.41.41,0,0,0,.36.21h0a.41.41,0,0,0,.36-.26,5.75,5.75,0,0,1,1.24-1.83,4,4,0,0,1,3.87-1.1,108.33,108.33,0,0,1-1.79,14.8,43.2,43.2,0,0,0-10.1.05,52.45,52.45,0,0,1-3-10.11c3.06-.73,4.5,2.27,4.56,2.41a.43.43,0,0,0,.37.24h0a.44.44,0,0,0,.38-.24A3.37,3.37,0,0,0,21,24.41a3.9,3.9,0,0,0-.73-.24,6.59,6.59,0,0,1,4,.67.45.45,0,0,0,.45,0,.4.4,0,0,0,.16-.41A4.26,4.26,0,0,0,23,21.68a4.33,4.33,0,0,0-3.25-.62,4.21,4.21,0,0,0-1.23.45,5.79,5.79,0,0,1,3.75-1.41h0a.41.41,0,0,0,.32-.67A4,4,0,0,0,20,18a4,4,0,0,0-2.9.88,3.94,3.94,0,0,0-1.31,2,3.89,3.89,0,0,0-2-1.36,4,4,0,0,0-4.94,2.64.41.41,0,0,0,.13.42.42.42,0,0,0,.44.07,5.87,5.87,0,0,1,4-.17,4.53,4.53,0,0,0-1.32.07,4.31,4.31,0,0,0-3.4,5.08A.4.4,0,0,0,9,28h.09a.41.41,0,0,0,.33-.15,6.61,6.61,0,0,1,3.36-2.16,3.23,3.23,0,0,0-.56.49,3.34,3.34,0,0,0,.26,4.76.43.43,0,0,0,.28.11.4.4,0,0,0,.41-.4,5.3,5.3,0,0,1,.5-1.92,3.57,3.57,0,0,1,2.86-2.07,53.1,53.1,0,0,0,2.95,10.05A48,48,0,0,0,8.76,39.52a.41.41,0,0,0-.23.53.4.4,0,0,0,.38.25A.41.41,0,0,0,9.07,40.27Zm23.86-21s0,0,0-.05l0,0a.14.14,0,0,0,0,.06ZM37.52,25a5.16,5.16,0,0,0-3.83-3.89,2.89,2.89,0,0,1,1.24-.28h0a2.91,2.91,0,0,1,2,.82A2.86,2.86,0,0,1,37.52,25Zm-.06-7a3.89,3.89,0,0,1,3.35,3.51,7.63,7.63,0,0,0-4.69-1.85,6.13,6.13,0,0,0-2.81.7,3.79,3.79,0,0,1,1.27-1.62A3.9,3.9,0,0,1,37.46,18Zm-1.61-3.26a3.39,3.39,0,0,1,1.21-.21,3.58,3.58,0,0,1,1.46.31A3.5,3.5,0,0,1,40,16a6.16,6.16,0,0,0-6.39,2.18A3.47,3.47,0,0,1,35.85,14.72Zm-8.79-.47a3.49,3.49,0,0,1,1.7-.77,3.54,3.54,0,0,1,2.6.62,3.44,3.44,0,0,1,1.24,4A6.09,6.09,0,0,0,27.06,14.25Zm-2.38,4.93A3.66,3.66,0,0,1,26,17.53a4,4,0,0,1,2.94-.74,3.9,3.9,0,0,1,3.37,3.32A6.15,6.15,0,0,0,28,18.47,8.79,8.79,0,0,0,24.68,19.18Zm2.11,4.35a2.87,2.87,0,0,1,3.64-3.31,2.8,2.8,0,0,1,1.11.61A5.16,5.16,0,0,0,26.79,23.53Zm-4.67,4.19a4.84,4.84,0,0,0-3.86-2.16l-.47,0a2.49,2.49,0,0,1,.88-.54,2.62,2.62,0,0,1,2,.1A2.54,2.54,0,0,1,22.12,27.72ZM20,21.85a3.35,3.35,0,0,1,.71-.07,3.59,3.59,0,0,1,1.92.57,3.51,3.51,0,0,1,1.24,1.41A6.17,6.17,0,0,0,17.16,25,3.49,3.49,0,0,1,20,21.85ZM17.6,19.53a3.11,3.11,0,0,1,2-.71h.3a3.22,3.22,0,0,1,1.49.53,7.71,7.71,0,0,0-1.73.49,5.06,5.06,0,0,0-3,3.21A3.09,3.09,0,0,1,17.6,19.53Zm-5.85,1.91h0a7.12,7.12,0,0,0-1.75.22,3.07,3.07,0,0,1,1.16-1.07,3.15,3.15,0,0,1,4.63,2.65A5.13,5.13,0,0,0,11.75,21.44ZM9.42,26.66a3.52,3.52,0,0,1,2.83-3.27,3.35,3.35,0,0,1,.71-.07,3.57,3.57,0,0,1,3.13,1.89A6.21,6.21,0,0,0,9.42,26.66Zm3.06,3a2.53,2.53,0,0,1,.35-2.94,2.58,2.58,0,0,1,1.78-.85h.15a2.53,2.53,0,0,1,.87.15A4.72,4.72,0,0,0,12.48,29.66Z"/></g></g></g><circle id="SVGID-5" data-name="SVGID" class="cls-4" cx="25.08" cy="24.65" r="20.46"/></svg>