<svg id="Layer_1" data-name="Layer 1" xmlns="http://www.w3.org/2000/svg" xmlns:xlink="http://www.w3.org/1999/xlink" viewBox="0 0 78 78"><defs><style>.cls-1{fill:#fff;}.cls-1,.cls-3{fill-rule:evenodd;}.cls-2{mask:url(#mask);}.cls-3{fill:#af9243;}</style><mask id="mask" x="16" y="13.98" width="47" height="48" maskUnits="userSpaceOnUse"><g id="mask-2"><polygon id="path-1" class="cls-1" points="16 13.98 63 13.98 63 61.98 16 61.98 16 13.98"/></g></mask></defs><g id="Homepage"><g id="RED-SEA-1.1.1-Master-Plan"><g id="Group-13"><g id="Homepage-2" data-name="Homepage"><g id="RED-SEA-1.1-The-Project-3"><g id="Group-3"><g class="cls-2"><path id="Fill-1" class="cls-3" d="M18,49.18l8-4.51V60.78H18Zm22.06.48a6.73,6.73,0,0,1,3.58,3.23v7.89H40.09ZM38.92,60.78H35.34V52.89a6.77,6.77,0,0,1,3.58-3.23ZM51.79,36V60.78H44.84v-8a.64.64,0,0,0,0-.2c-.05-.13-1.1-3-5.12-4.36a.59.59,0,0,0-.37,0c-4,1.38-5.08,4.23-5.12,4.36a.65.65,0,0,0,0,.2v8H27.22V36Zm-23.15-1.2h2.11V29.61H28.64ZM39.5,17.91a11,11,0,0,1,10.84,10.5H28.67A11,11,0,0,1,39.5,17.91ZM45,34.82h2.09V29.61H45Zm-3.27,0h2.09V29.61H41.72Zm-3.26,0h2.09V29.61H38.46Zm-3.27,0h2.09V29.61H35.19Zm-3.26,0H34V29.61H31.93Zm16.32,0h2.12V29.61H48.25ZM60.89,49.18v11.6H53V44.72Zm1.53,11.6h-.35v-12a.61.61,0,0,0-.31-.53L53,43.35V35.42a.59.59,0,0,0-.59-.6h-.83V29A12.19,12.19,0,0,0,40.09,16.74V14.58a.59.59,0,1,0-1.17,0v2.16A12.2,12.2,0,0,0,27.46,29v5.81h-.82a.59.59,0,0,0-.59.6V43.3l-8.89,5a.61.61,0,0,0-.31.53v12h-.26a.6.6,0,0,0,0,1.2H62.42a.6.6,0,0,0,0-1.2Z"/></g></g></g></g></g></g></g></svg>