<svg id="Layer_1" data-name="Layer 1" xmlns="http://www.w3.org/2000/svg" xmlns:xlink="http://www.w3.org/1999/xlink" viewBox="0 0 50.15 76.61"><defs><style>.cls-1,.cls-4{fill:none;}.cls-2{fill:#f6f6f6;}.cls-2,.cls-4{stroke:#fff;stroke-linecap:round;stroke-linejoin:round;stroke-width:0.56px;}.cls-3{fill:#297f90;}.cls-5{clip-path:url(#clip-path);}.cls-6{fill:#fff;}</style><clipPath id="clip-path"><circle id="SVGID" class="cls-1" cx="25.08" cy="24.65" r="20.46"/></clipPath></defs><path class="cls-2" d="M49.88,25.08c0,13.7-24.8,51.25-24.8,51.25S.28,38.78.28,25.08a24.8,24.8,0,0,1,49.6,0Z"/><circle id="SVGID-2" data-name="SVGID" class="cls-3" cx="25.08" cy="24.65" r="20.46"/><circle id="SVGID-3" data-name="SVGID" class="cls-4" cx="25.08" cy="24.65" r="20.46"/><g class="cls-5"><g id="Homepage"><g id="RED-SEA-1.3-Destination-3"><g id="noun_leaf_1991268_ae9142" data-name="noun leaf 1991268 ae9142"><path id="Shape" class="cls-6" d="M24.63,40.94v3.71a.45.45,0,1,0,.9,0V40.94a12,12,0,0,0,11.35-12c0-3.83-1.94-8.34-5.77-13.42A57.7,57.7,0,0,0,25.39,9a.46.46,0,0,0-.63,0c-.46.45-11.48,11.18-11.48,19.89A12,12,0,0,0,24.63,40.94ZM17.76,19.08l6.87,6.44V34.8l-9.92-9.3A26.29,26.29,0,0,1,17.76,19.08Zm17.7,6.4L25.53,34.8V25.52L32.46,19A25.33,25.33,0,0,1,35.46,25.48ZM25.53,40V36l10.18-9.55a11.67,11.67,0,0,1,.26,2.4A11.06,11.06,0,0,1,25.53,40ZM32,18.25l-6.43,6V10.58a.44.44,0,0,0-.11-.29A54.62,54.62,0,0,1,32,18.25ZM25.08,10l.28.27a.46.46,0,0,0-.28-.11.49.49,0,0,0-.24.08Zm-.39.4a.38.38,0,0,0-.06.22v13.7l-6.37-6A57.87,57.87,0,0,1,24.69,10.36ZM14.46,26.5,24.63,36v4A11.08,11.08,0,0,1,14.46,26.5Z"/></g></g></g></g></svg>