<svg id="Layer_1" data-name="Layer 1" xmlns="http://www.w3.org/2000/svg" xmlns:xlink="http://www.w3.org/1999/xlink" viewBox="0 0 50.15 76.61"><defs><style>.cls-1,.cls-5{fill:#b09245;}.cls-1,.cls-2,.cls-4{stroke:#fff;stroke-linecap:round;stroke-linejoin:round;stroke-width:0.56px;}.cls-2{fill:#f6f6f6;}.cls-3{fill:#297f90;}.cls-4{fill:none;}.cls-6{clip-path:url(#clip-path);}.cls-7{fill:#fff;}</style><clipPath id="clip-path"><circle id="SVGID" class="cls-1" cx="25.09" cy="24.65" r="20.46"/></clipPath></defs><path class="cls-2" d="M49.88,25.08c0,13.7-24.8,51.25-24.8,51.25S.28,38.78.28,25.08a24.8,24.8,0,0,1,49.6,0Z"/><circle id="SVGID-2" data-name="SVGID" class="cls-3" cx="25.09" cy="24.65" r="20.46"/><circle id="SVGID-3" data-name="SVGID" class="cls-4" cx="25.09" cy="24.65" r="20.46"/><circle id="SVGID-4" data-name="SVGID" class="cls-5" cx="25.09" cy="24.65" r="20.46"/><g class="cls-6"><g id="UPM"><g id="UPM---EN---Desktop"><g id="Objectives"><path id="Shape-1" class="cls-7" d="M39.19,11.62a.39.39,0,0,1,.38.38V45.52a.39.39,0,0,1-.38.38H11a.39.39,0,0,1-.38-.38V21.9a.39.39,0,0,1,.38-.38h7.24V12a.39.39,0,0,1,.38-.38Zm-.38.76H19V45.14h7.62V38.67a.39.39,0,0,1,.38-.38h3.81a.39.39,0,0,1,.38.38v6.47h7.62ZM36.9,13.9a.4.4,0,0,1,.39.38V35.5a.4.4,0,0,1-.39.38H33.1a.4.4,0,0,1-.39-.38V14.28a.4.4,0,0,1,.39-.38Zm-6.09,0a.39.39,0,0,1,.38.38V35.5a.39.39,0,0,1-.38.38H27a.39.39,0,0,1-.38-.38V14.28A.39.39,0,0,1,27,13.9Zm-6.1,0a.39.39,0,0,1,.38.38V35.5a.39.39,0,0,1-.38.38H20.9a.39.39,0,0,1-.38-.38V14.28a.39.39,0,0,1,.38-.38Zm11.81.77h-3V35.12h3Zm-6.09,0H27.38V35.12h3.05Zm-6.1,0h-3V35.12h3Zm-6.09,7.61H11.38V45.14h6.86Zm-1.91,1.53a.39.39,0,0,1,.38.38V35.43a.39.39,0,0,1-.38.38h-3a.4.4,0,0,1-.39-.38V24.19a.4.4,0,0,1,.39-.38Zm-.38.76H13.67V35.05H16ZM30.43,39.05H27.38v6.09h3.05Zm-14.1.76a.39.39,0,0,1,.38.38v4.07a.39.39,0,0,1-.38.38h-3a.4.4,0,0,1-.39-.38V40.19a.4.4,0,0,1,.39-.38Zm-.38.76H13.67v3.31H16Z"/></g></g></g></g><circle id="SVGID-5" data-name="SVGID" class="cls-4" cx="25.09" cy="24.65" r="20.46"/></svg>