<svg id="Layer_1" data-name="Layer 1" xmlns="http://www.w3.org/2000/svg" viewBox="0 0 50.15 76.61"><defs><style>.cls-1{fill:#f6f6f6;}.cls-1,.cls-3,.cls-4{stroke:#fff;}.cls-1,.cls-3{stroke-linecap:round;stroke-linejoin:round;stroke-width:0.56px;}.cls-2{fill:#b09245;}.cls-3{fill:none;}.cls-4{fill:#fff;stroke-miterlimit:10;stroke-width:0.18px;}</style></defs><path class="cls-1" d="M49.88,25.08c0,13.7-24.8,51.25-24.8,51.25S.28,38.78.28,25.08a24.8,24.8,0,0,1,49.6,0Z"/><circle id="SVGID" class="cls-2" cx="25.08" cy="24.65" r="20.46"/><circle id="SVGID-2" data-name="SVGID" class="cls-3" cx="25.08" cy="24.65" r="20.46"/><path class="cls-4" d="M41.11,33.94H9.05a.29.29,0,0,1-.3-.3v-4a.3.3,0,0,1,.3-.3H41.11a.31.31,0,0,1,.3.3v4A.3.3,0,0,1,41.11,33.94Zm-31.76-.6H40.8V30H9.35Z"/><path class="cls-4" d="M38.86,30H11.29a.3.3,0,0,1-.3-.31,13.81,13.81,0,0,1,.36-3.14,13.61,13.61,0,0,1,1-2.89A13.94,13.94,0,0,1,14,21.08a14.79,14.79,0,0,1,2.11-2.15,14.54,14.54,0,0,1,2.54-1.65,14.05,14.05,0,0,1,2.87-1.1.31.31,0,0,1,.25.05.32.32,0,0,1,.13.21L23,26.4h4.16l1.11-10a.32.32,0,0,1,.13-.21.31.31,0,0,1,.25-.05,14.12,14.12,0,0,1,7.52,4.91,13.88,13.88,0,0,1,2.2,4,13.72,13.72,0,0,1,.79,4.62.31.31,0,0,1-.09.22A.27.27,0,0,1,38.86,30ZM11.6,29.37H38.55a13.36,13.36,0,0,0-9.72-12.51l-1.1,9.87a.3.3,0,0,1-.3.27h-4.7a.29.29,0,0,1-.3-.27l-1.11-9.87a13.4,13.4,0,0,0-4.84,2.54A13.24,13.24,0,0,0,11.6,29.37Z"/><path class="cls-4" d="M27.43,27h-4.7a.29.29,0,0,1-.3-.27L21,14.14a.31.31,0,0,1,.22-.33,14.21,14.21,0,0,1,7.69,0,.3.3,0,0,1,.22.33L27.73,26.73A.3.3,0,0,1,27.43,27ZM23,26.4h4.16l1.35-12.07a13.63,13.63,0,0,0-6.87,0Z"/><path class="cls-4" d="M16.29,27a.3.3,0,0,1-.31-.3V19.17a.31.31,0,1,1,.61,0V26.7A.3.3,0,0,1,16.29,27Z"/><path class="cls-4" d="M33.84,27a.29.29,0,0,1-.3-.3V19.17a.3.3,0,1,1,.6,0V26.7A.29.29,0,0,1,33.84,27Z"/><path class="cls-4" d="M25.08,19.33a1.93,1.93,0,0,1-1.37-.56,1.91,1.91,0,0,1,0-2.72,1.93,1.93,0,0,1,1.37-.56,2,2,0,0,1,1.37.56,1.93,1.93,0,0,1,0,2.72A2,2,0,0,1,25.08,19.33Zm0-3.24a1.32,1.32,0,1,0,1.33,1.32A1.33,1.33,0,0,0,25.08,16.09Z"/><path class="cls-4" d="M25.08,32h-16a.31.31,0,0,1,0-.61h16a.31.31,0,0,1,0,.61Z"/></svg>