<svg id="Layer_1" data-name="Layer 1" xmlns="http://www.w3.org/2000/svg" viewBox="0 0 78 78"><defs><style>.cls-1{fill:none;stroke:#af9244;stroke-linecap:round;stroke-linejoin:round;stroke-width:1.1px;}</style></defs><g id="Homepage"><path class="cls-1" d="M27.32,43.77,21,59.44l7.37-.93,4.61,5.7,5.36-15.58m13.15-4.86L57.8,59.44l-7.37-.93-4.52,5.7L40.47,48.63"/><circle class="cls-1" cx="39.38" cy="31.38" r="10.05"/><path class="cls-1" d="M39.38,16l3.77-2.18,2.59,3.52L50,16.89l.92,4.19L55,22.5l-.84,4.19,3.18,2.93-2.51,3.52,1.76,4-3.77,2.18v4.27l-4.35.5-1.76,3.94-4.11-1.26-3.26,2.85-3.27-2.85L32,48.05l-1.76-3.94-4.36-.5V39.34l-3.77-2.18,1.76-4-2.51-3.52,3.18-2.93-.83-4.19,4.1-1.42.92-4.19,4.27.42,2.6-3.52Z"/></g></svg>