<svg id="Layer_1" data-name="Layer 1" xmlns="http://www.w3.org/2000/svg" viewBox="0 0 78 78"><defs><style>.cls-1{fill:#af9243;}</style></defs><g id="Homepage"><g id="RED-SEA-1.1.1-Master-Plan"><g id="Group-13"><g id="Homepage-2" data-name="Homepage"><g id="RED-SEA-1.1.2-PIF-Vision-2030"><g id="noun_race-flag_2094361_ae9142" data-name="noun race-flag 2094361 ae9142"><path id="Shape" class="cls-1" d="M61.36,25.05H51V21.59a.52.52,0,0,0-.52-.52H25.54v-.59a2.6,2.6,0,0,0-5.2,0V58.65a.51.51,0,0,0,.52.51H25a.51.51,0,0,0,.52-.51V44.78H37.28v5a.52.52,0,0,0,.52.52H61.36a.52.52,0,0,0,.52-.52V25.57A.52.52,0,0,0,61.36,25.05ZM24.5,58.13H21.38V20.48a1.56,1.56,0,0,1,3.12,0Zm1-36h24.4V43.75H25.54Zm35.3,27.16H38.32V44.78H50.46a.51.51,0,0,0,.52-.51V26.08h9.86Z"/></g></g></g></g></g></g></svg>