<svg id="Layer_1" data-name="Layer 1" xmlns="http://www.w3.org/2000/svg" viewBox="0 0 78 78"><defs><style>.cls-1{fill:#af9243;stroke:#b09244;stroke-miterlimit:10;stroke-width:0.41px;}</style></defs><g id="Homepage"><g id="RED-SEA-1.1.1-Master-Plan"><g id="Group-13"><path class="cls-1" d="M56.88,49.26a.4.4,0,0,0,.41-.4v-1a.41.41,0,0,0-.81,0v1A.4.4,0,0,0,56.88,49.26Z"/><path class="cls-1" d="M56.88,44.45a.41.41,0,0,0,.41-.41v-1a.41.41,0,0,0-.81,0v1A.41.41,0,0,0,56.88,44.45Z"/><path class="cls-1" d="M56.88,39.63a.41.41,0,0,0,.41-.41v-.95a.41.41,0,1,0-.81,0v.95A.41.41,0,0,0,56.88,39.63Z"/><path class="cls-1" d="M34.76,30.21h7.39a.41.41,0,0,0,0-.81H34.76a.41.41,0,0,0,0,.81Z"/><path class="cls-1" d="M56.88,53.91a.41.41,0,0,0,.41-.41v-1a.41.41,0,1,0-.81,0v1A.4.4,0,0,0,56.88,53.91Z"/><path class="cls-1" d="M53.79,37.86a.41.41,0,0,0-.41.41v.95a.41.41,0,1,0,.81,0v-.95A.4.4,0,0,0,53.79,37.86Z"/><path class="cls-1" d="M50.69,47.5a.41.41,0,0,0-.41.4v1a.41.41,0,0,0,.41.4.4.4,0,0,0,.4-.4v-1A.4.4,0,0,0,50.69,47.5Z"/><path class="cls-1" d="M50.69,52.14a.41.41,0,0,0-.41.41v1a.41.41,0,0,0,.41.41.4.4,0,0,0,.4-.41v-1A.4.4,0,0,0,50.69,52.14Z"/><path class="cls-1" d="M50.69,37.86a.41.41,0,0,0-.41.41v.95a.42.42,0,0,0,.41.41.41.41,0,0,0,.4-.41v-.95A.4.4,0,0,0,50.69,37.86Z"/><path class="cls-1" d="M50.69,42.68a.41.41,0,0,0-.41.4v1a.42.42,0,0,0,.41.41.41.41,0,0,0,.4-.41v-1A.4.4,0,0,0,50.69,42.68Z"/><path class="cls-1" d="M53.79,52.14a.41.41,0,0,0-.41.41v1a.41.41,0,1,0,.81,0v-1A.4.4,0,0,0,53.79,52.14Z"/><path class="cls-1" d="M53.79,42.68a.4.4,0,0,0-.41.4v1a.41.41,0,1,0,.81,0v-1A.4.4,0,0,0,53.79,42.68Z"/><path class="cls-1" d="M53.79,47.5a.4.4,0,0,0-.41.4v1a.41.41,0,0,0,.81,0v-1A.4.4,0,0,0,53.79,47.5Z"/><path class="cls-1" d="M34.76,46.57h7.39a.41.41,0,0,0,0-.81H34.76a.41.41,0,0,0,0,.81Z"/><path class="cls-1" d="M34.76,34.3h7.39a.41.41,0,0,0,0-.81H34.76a.41.41,0,0,0,0,.81Z"/><path class="cls-1" d="M23.81,52.36a.41.41,0,0,0,.4-.41V51a.41.41,0,1,0-.81,0v1A.41.41,0,0,0,23.81,52.36Z"/><path class="cls-1" d="M23.81,47.54a.4.4,0,0,0,.4-.4v-1a.41.41,0,1,0-.81,0v1A.4.4,0,0,0,23.81,47.54Z"/><path class="cls-1" d="M20.71,47.54a.41.41,0,0,0,.41-.4v-1a.42.42,0,0,0-.41-.41.41.41,0,0,0-.4.41v1A.4.4,0,0,0,20.71,47.54Z"/><path class="cls-1" d="M60.94,33.49H47V24.94a.41.41,0,0,0-.41-.41H43.37v-4a.4.4,0,0,0-.4-.41H38.86V16.38a.41.41,0,1,0-.81,0v3.78H33.94a.4.4,0,0,0-.4.41v4H30.31a.4.4,0,0,0-.4.41V39.8L17,42.86a.42.42,0,0,0-.31.4V61.62a.4.4,0,0,0,.4.41L60.91,62a.4.4,0,0,0,.4-.4l0-27.69a.41.41,0,0,0-.11-.28A.4.4,0,0,0,60.94,33.49Zm-6,24.39v3.29H52.65V57.88Zm.4-.81H52.24a.4.4,0,0,0-.4.41v3.7H47V34.3H60.53l0,26.87H55.74V57.48A.41.41,0,0,0,55.33,57.07Zm-21-32.54V21h8.21v3.56Zm11.85.81V61.19H30.72V25.34ZM29.91,40.63V61.2l-12.44,0V43.58Z"/><path class="cls-1" d="M20.71,52.36a.42.42,0,0,0,.41-.41V51a.42.42,0,0,0-.41-.41.41.41,0,0,0-.4.41v1A.41.41,0,0,0,20.71,52.36Z"/><path class="cls-1" d="M26.9,57.17a.4.4,0,0,0,.41-.4v-1a.41.41,0,0,0-.81,0v1A.4.4,0,0,0,26.9,57.17Z"/><path class="cls-1" d="M20.71,57.17a.41.41,0,0,0,.41-.4v-1a.41.41,0,0,0-.41-.4.4.4,0,0,0-.4.4v1A.4.4,0,0,0,20.71,57.17Z"/><path class="cls-1" d="M23.81,57.17a.4.4,0,0,0,.4-.4v-1a.41.41,0,0,0-.81,0v1A.4.4,0,0,0,23.81,57.17Z"/><path class="cls-1" d="M34.76,42.48h7.39a.41.41,0,0,0,0-.81H34.76a.41.41,0,0,0,0,.81Z"/><path class="cls-1" d="M34.76,38.39h7.39a.41.41,0,0,0,0-.81H34.76a.41.41,0,0,0,0,.81Z"/><path class="cls-1" d="M34.76,50.66h7.39a.41.41,0,0,0,0-.81H34.76a.41.41,0,0,0,0,.81Z"/><path class="cls-1" d="M26.9,47.54a.4.4,0,0,0,.41-.4v-1a.41.41,0,1,0-.81,0v1A.4.4,0,0,0,26.9,47.54Z"/><path class="cls-1" d="M26.9,52.36a.41.41,0,0,0,.41-.41V51a.41.41,0,1,0-.81,0v1A.41.41,0,0,0,26.9,52.36Z"/><path class="cls-1" d="M34.76,58.84h7.39a.41.41,0,0,0,0-.81H34.76a.41.41,0,0,0,0,.81Z"/><path class="cls-1" d="M34.76,54.75h7.39a.41.41,0,0,0,0-.81H34.76a.41.41,0,0,0,0,.81Z"/></g></g></g></svg>