<svg id="Layer_1" data-name="Layer 1" xmlns="http://www.w3.org/2000/svg" viewBox="0 0 78 78"><defs><style>.cls-1,.cls-2{fill:#af9243;}.cls-2{fill-rule:evenodd;}</style></defs><g id="Homepage"><g id="Homepage-2" data-name="Homepage"><g id="RED-SEA-1.4-Smart-_-Sustainable-4" data-name="RED-SEA-1.4-Smart-&amp;-Sustainable-4"><g id="Cloud-icon"><g id="noun_Rain_1544544_ae9142" data-name="noun Rain 1544544 ae9142"><path id="Shape" class="cls-1" d="M52.4,44.6a10.86,10.86,0,0,0,.19-2.05c0-5.64-4.1-10.24-9.14-10.24a9.19,9.19,0,0,0-8.32,6,6.62,6.62,0,0,0-3.8-1.21,7.38,7.38,0,0,0-6.84,5.43,8.59,8.59,0,0,0-.86-.05c-5,0-9.14,4.59-9.14,10.24S18.59,63,23.63,63h28.8a.57.57,0,0,0,.18,0c4.28-.35,7.61-4.34,7.61-9.16S56.75,44.83,52.4,44.6Zm0,17a.53.53,0,0,0-.12,0H23.63c-4.41,0-8-4-8-9s3.58-8.95,8-8.95a7.51,7.51,0,0,1,1.18.1.56.56,0,0,0,.63-.46,6.28,6.28,0,0,1,5.89-5,5.66,5.66,0,0,1,3.72,1.42.5.5,0,0,0,.51.11.62.62,0,0,0,.37-.4,8.13,8.13,0,0,1,7.52-5.91c4.41,0,8,4,8,8.95a10.24,10.24,0,0,1-.32,2.52.69.69,0,0,0,.1.58.52.52,0,0,0,.48.24H52c3.89,0,7,3.55,7,7.9C59.07,58,56.14,61.43,52.4,61.65Z"/></g><g id="noun_wifi_1583300_ae9142" data-name="noun wifi 1583300 ae9142"><path id="Path" class="cls-2" d="M57.86,31.83a.55.55,0,0,0,.78.23.63.63,0,0,0,.22-.84A18.57,18.57,0,0,0,42.58,21,18.56,18.56,0,0,0,26.3,31.22a.64.64,0,0,0,.21.84.55.55,0,0,0,.78-.24A17.45,17.45,0,0,1,42.58,22.2,17.41,17.41,0,0,1,57.86,31.83Z"/><path id="Path-2" data-name="Path" class="cls-2" d="M65.44,27C60.78,18.13,52,12.61,42.58,12.61S24.38,18.12,19.72,27a.64.64,0,0,0,.21.84.55.55,0,0,0,.78-.23c4.46-8.49,12.84-13.77,21.87-13.77S60,19.12,64.44,27.61a.56.56,0,0,0,.5.31.5.5,0,0,0,.28-.08A.64.64,0,0,0,65.44,27Z"/></g></g></g></g></g></svg>