<svg id="Layer_1" data-name="Layer 1" xmlns="http://www.w3.org/2000/svg" viewBox="0 0 78 78"><defs><style>.cls-1,.cls-2{fill:#af9243;}.cls-1{fill-rule:evenodd;}</style></defs><g id="Homepage"><g id="RED-SEA-1.1.1-Master-Plan"><g id="Group"><g id="noun_Baggage_1128889_ae9142" data-name="noun Baggage 1128889 ae9142"><path id="Path" class="cls-1" d="M41,40.5h-2.9a.5.5,0,1,0,0,1H41a.5.5,0,1,0,0-1Z"/><path id="Shape" class="cls-2" d="M57.93,53.5h-1.7V33.26a17.13,17.13,0,0,0-34.26,0V53.5h-1.9a.56.56,0,1,0,0,1.12H22v3.9a.58.58,0,0,0,.57.57h2.14a3.05,3.05,0,0,0,6,0H47.08a3.05,3.05,0,0,0,6,0h2.61a.57.57,0,0,0,.57-.57v-3.9h1.7a.56.56,0,1,0,0-1.12ZM23.12,33.26a16,16,0,0,1,32,0V53.5H51a2.36,2.36,0,0,0,.38-1.29V39.88a2.44,2.44,0,0,0-2.46-2.41H44.38v-1A2.51,2.51,0,0,0,41.85,34h-5.7a2.51,2.51,0,0,0-2.53,2.47v1H29.53a2.44,2.44,0,0,0-2.46,2.41V52.21a2.28,2.28,0,0,0,.39,1.29H23.12V33.26Zm5.1,19V39.88a1.3,1.3,0,0,1,1.31-1.29h1.89V53.5H29.53A1.3,1.3,0,0,1,28.22,52.21Zm4.35-13.62h1V53.5h-1Zm10.66-1.12H34.77v-1a1.37,1.37,0,0,1,1.38-1.35h5.7a1.37,1.37,0,0,1,1.38,1.35v1Zm-8.46,1.12h8.46V53.5H34.77Zm9.61,0h1V53.5h-1Zm2.2,0h2.34a1.3,1.3,0,0,1,1.31,1.29V52.21a1.3,1.3,0,0,1-1.31,1.29H46.58ZM27.66,60.38a1.86,1.86,0,1,1,1.9-1.86A1.88,1.88,0,0,1,27.66,60.38Zm22.41,0A1.86,1.86,0,1,1,52,58.52,1.88,1.88,0,0,1,50.07,60.38Zm5-2.42h-2a3.05,3.05,0,0,0-6,0H30.65a3.05,3.05,0,0,0-6,0H23.12V54.62h32Z"/></g></g></g></g></svg>