<svg id="Layer_1" data-name="Layer 1" xmlns="http://www.w3.org/2000/svg" viewBox="0 0 78 78"><defs><style>.cls-1{fill:none;stroke:#af9244;stroke-linecap:round;stroke-linejoin:round;stroke-width:1.09px;}</style></defs><g id="Homepage"><g id="Outline_Icons" data-name="Outline Icons"><polygon class="cls-1" points="46.49 60.53 36.62 60.53 32.66 48.74 50.45 48.74 46.49 60.53"/><path class="cls-1" d="M45.54,33c-2.72,1.81-4.12,5.1,0,7.86,2.27,5.62,6.47,4.11,9,1.5s3.78-9.87,2-13.85C52.48,31.51,48.94,30.78,45.54,33Z"/><path class="cls-1" d="M37.68,25.1c2.93,3.42,4.48,7.92-2.5,10.95-3.19,7.08-8,4.46-11.28.67s-4.46-13.9-1.62-19.25C27.53,21.88,34,20.82,37.68,25.1Z"/><path class="cls-1" d="M51.19,36.39C44.41,39.76,41,48.74,41,48.74A48.39,48.39,0,0,0,26.87,25.47"/></g></g></svg>