<svg id="Layer_1" data-name="Layer 1" xmlns="http://www.w3.org/2000/svg" viewBox="0 0 78 78"><defs><style>.cls-1{fill:#af9243;}</style></defs><g id="Homepage"><g id="RED-SEA-1.1.1-Master-Plan"><g id="Group-13"><g id="noun_Bed_959364_ae9142" data-name="noun Bed 959364 ae9142"><path id="Shape" class="cls-1" d="M56,22.72c-3.21-3.45-8.86-5.22-16.88-5.22h-.16c-8,0-13.67,1.77-16.88,5.22a8.86,8.86,0,0,0-2.54,6.15V58a.52.52,0,0,0,1,0V51.3H57.46V58a.52.52,0,1,0,1,0V28.92A8.88,8.88,0,0,0,56,22.72ZM20.54,38.42A45.75,45.75,0,0,1,31,36.28a70.92,70.92,0,0,1,26.51,2.19v6.31H20.54Zm16.1-3.55a62.52,62.52,0,0,0-12.17,1.41v-4.9a1.18,1.18,0,0,1,1.2-1.2h9.78a1.17,1.17,0,0,1,1.19,1.2Zm16.94,1.57a72.66,72.66,0,0,0-12.17-1.52V31.43a1.18,1.18,0,0,1,1.19-1.2h9.79a1.18,1.18,0,0,1,1.19,1.2Zm-30.76-13c2.95-3.19,8.54-4.91,16.21-4.91s13.2,1.72,16.15,4.91a7.86,7.86,0,0,1,2.28,5.42v8.5c-1-.26-1.92-.47-2.9-.73V31.38a2.22,2.22,0,0,0-2.23-2.25H42.55a2.22,2.22,0,0,0-2.23,2.25v3.49c-.88,0-1.76,0-2.64,0V31.43a2.22,2.22,0,0,0-2.23-2.25H25.67a2.22,2.22,0,0,0-2.23,2.25v5.16c-1.35.31-2.33.63-2.9.78v-8.5A7.79,7.79,0,0,1,22.82,23.45ZM20.54,50.26V45.82H57.46v4.44Z"/></g></g></g></g></svg>